<svg width="79" height="75" viewBox="0 0 79 75" fill="none" xmlns="http://www.w3.org/2000/svg">
<path d="M57.1383 53.8391C57.6542 53.9181 58.1806 53.8948 58.6875 53.7705C59.1947 53.6461 59.6723 53.423 60.0932 53.114C60.5141 52.8051 60.8701 52.4162 61.1407 51.9697C61.4113 51.5231 61.5914 51.0276 61.6705 50.5115C61.75 49.985 61.7246 49.4479 61.5957 48.9312C61.4669 48.4145 61.2371 47.9284 60.9197 47.5009L47.7712 32.1706C47.6071 31.9499 47.494 31.6956 47.4399 31.4259C47.4438 31.3884 47.4495 31.3512 47.457 31.3143C47.8466 30.5806 48.049 29.7621 48.0461 28.9314C48.0433 28.1007 47.8353 27.2836 47.4406 26.5526C46.383 24.8751 44.7397 23.6503 42.8299 23.1161C42.6366 23.0591 42.4289 23.0774 42.2486 23.1675L42.0479 23.2834L41.9505 23.4113C41.8539 23.5399 41.7968 23.6939 41.7861 23.8545C41.7754 24.015 41.8116 24.1752 41.8903 24.3155L44.1716 28.4006L42.7554 29.7984L40.698 30.2628L38.4109 26.1651C38.3347 26.0296 38.2222 25.918 38.086 25.8429C37.9499 25.7678 37.7955 25.7322 37.6402 25.7399L37.416 25.7641L37.2801 25.838C37.0923 25.9429 36.9533 26.1174 36.8932 26.3239C36.3248 28.2077 36.4935 30.2371 37.3654 32.0011C37.9526 32.9765 38.8332 33.7413 39.8813 34.1861C40.9294 34.6309 42.0913 34.733 43.2008 34.4777C43.4348 34.69 43.6573 34.9146 43.8675 35.1504L54.5282 52.2598C54.8372 52.6828 55.2271 53.0401 55.6752 53.3113C56.1232 53.5823 56.6205 53.7617 57.1383 53.8391ZM55.5901 51.5423L44.8934 34.3884C44.5471 33.9676 44.1536 33.588 43.7207 33.257L43.4812 33.092L43.2 33.1658C42.3268 33.4259 41.3923 33.3916 40.5404 33.0684C39.6885 32.7451 38.9666 32.1507 38.4857 31.3768C37.9473 30.2921 37.7409 29.0727 37.8922 27.8712L39.6569 31.0315C39.7702 31.2304 39.944 31.3881 40.153 31.4816C40.362 31.5751 40.5953 31.5996 40.8191 31.5515L43.1441 31.0255C43.2223 31.0062 43.2978 30.9772 43.3688 30.9392L45.1965 29.1916C45.3622 29.03 45.4695 28.8179 45.5017 28.5887C45.5338 28.3595 45.4891 28.1261 45.3743 27.9251L43.63 24.8017C44.7371 25.3184 45.6712 26.1441 46.3199 27.1795C46.6208 27.7356 46.7752 28.3592 46.7686 28.9915C46.7619 29.6238 46.5944 30.244 46.2818 30.7936L46.2248 30.9458C46.1974 31.0625 46.1768 31.1806 46.163 31.2997C46.1773 31.894 46.3815 32.4681 46.7458 32.9378L59.9156 48.2986C60.2315 48.7294 60.4128 49.244 60.4365 49.7776C60.4602 50.3113 60.3253 50.84 60.0488 51.297C59.7724 51.7541 59.3667 52.119 58.8831 52.3458C58.3994 52.5725 57.8594 52.6509 57.3313 52.571C56.6385 52.4696 56.0132 52.1002 55.5901 51.5423ZM59.1402 50.1225L59.295 49.1082C59.3512 48.7384 59.2583 48.3614 59.0367 48.0599C58.8151 47.7585 58.483 47.5573 58.1133 47.5005L57.099 47.3456C56.7291 47.2895 56.3521 47.3824 56.0507 47.604C55.7493 47.8255 55.5481 48.1576 55.4913 48.5274L55.3364 49.5417C55.2803 49.9116 55.3732 50.2886 55.5947 50.59C55.8163 50.8914 56.1484 51.0926 56.5181 51.1494L57.5325 51.3043C57.9023 51.3604 58.2793 51.2675 58.5807 51.046C58.8822 50.8244 59.0833 50.4923 59.1402 50.1225ZM56.7117 49.8815C56.6781 49.8764 56.6479 49.8581 56.6278 49.8307C56.6076 49.8033 56.5992 49.769 56.6043 49.7353L56.7592 48.721C56.7643 48.6874 56.7826 48.6572 56.81 48.637C56.8374 48.6169 56.8717 48.6084 56.9054 48.6136L57.9197 48.7685C57.9533 48.7736 57.9835 48.7919 58.0037 48.8193C58.0238 48.8467 58.0323 48.881 58.0271 48.9146L57.8722 49.9289C57.8671 49.9626 57.8488 49.9928 57.8214 50.0129C57.794 50.0331 57.7597 50.0415 57.7261 50.0364L56.7117 49.8815Z" fill="#46344E"/>
<path d="M57.1383 53.8391C57.6542 53.9181 58.1806 53.8948 58.6875 53.7705C59.1947 53.6461 59.6723 53.423 60.0932 53.114C60.5141 52.8051 60.8701 52.4162 61.1407 51.9697C61.4113 51.5231 61.5914 51.0276 61.6705 50.5115C61.75 49.985 61.7246 49.4479 61.5957 48.9312C61.4669 48.4145 61.2371 47.9284 60.9197 47.5009L47.7712 32.1706C47.6071 31.9499 47.494 31.6956 47.4399 31.4259C47.4438 31.3884 47.4495 31.3512 47.457 31.3143C47.8466 30.5806 48.049 29.7621 48.0461 28.9314C48.0433 28.1007 47.8353 27.2836 47.4406 26.5526C46.383 24.8751 44.7397 23.6503 42.8299 23.1161C42.6366 23.0591 42.4289 23.0774 42.2486 23.1675L42.0479 23.2834L41.9505 23.4113C41.8539 23.5399 41.7968 23.6939 41.7861 23.8545C41.7754 24.015 41.8116 24.1752 41.8903 24.3155L44.1716 28.4006L42.7554 29.7984L40.698 30.2628L38.4109 26.1651C38.3347 26.0296 38.2222 25.918 38.086 25.8429C37.9499 25.7678 37.7955 25.7322 37.6402 25.7399L37.416 25.7641L37.2801 25.838C37.0923 25.9429 36.9533 26.1174 36.8932 26.3239C36.3248 28.2077 36.4935 30.2371 37.3654 32.0011C37.9526 32.9765 38.8332 33.7413 39.8813 34.1861C40.9294 34.6309 42.0913 34.733 43.2008 34.4777C43.4348 34.69 43.6573 34.9146 43.8675 35.1504L54.5282 52.2598C54.8372 52.6828 55.2271 53.0401 55.6752 53.3113C56.1232 53.5823 56.6205 53.7617 57.1383 53.8391ZM55.5901 51.5423L44.8934 34.3884C44.5471 33.9676 44.1536 33.588 43.7207 33.257L43.4812 33.092L43.2 33.1658C42.3268 33.4259 41.3923 33.3916 40.5404 33.0684C39.6885 32.7451 38.9666 32.1507 38.4857 31.3768C37.9473 30.2921 37.7409 29.0727 37.8922 27.8712L39.6569 31.0315C39.7702 31.2304 39.944 31.3881 40.153 31.4816C40.362 31.5751 40.5953 31.5996 40.8191 31.5515L43.1441 31.0255C43.2223 31.0062 43.2978 30.9772 43.3688 30.9392L45.1965 29.1916C45.3622 29.03 45.4695 28.8179 45.5017 28.5887C45.5338 28.3595 45.4891 28.1261 45.3743 27.9251L43.63 24.8017C44.7371 25.3184 45.6712 26.1441 46.3199 27.1795C46.6208 27.7356 46.7752 28.3592 46.7686 28.9915C46.7619 29.6238 46.5944 30.244 46.2818 30.7936L46.2248 30.9458C46.1974 31.0625 46.1768 31.1806 46.163 31.2997C46.1773 31.894 46.3815 32.4681 46.7458 32.9378L59.9156 48.2986C60.2315 48.7294 60.4128 49.244 60.4365 49.7776C60.4602 50.3113 60.3253 50.84 60.0488 51.297C59.7724 51.7541 59.3667 52.119 58.8831 52.3458C58.3994 52.5725 57.8594 52.6509 57.3313 52.571C56.6385 52.4696 56.0132 52.1002 55.5901 51.5423ZM59.1402 50.1225L59.295 49.1082C59.3512 48.7384 59.2583 48.3614 59.0367 48.0599C58.8151 47.7585 58.483 47.5573 58.1133 47.5005L57.099 47.3456C56.7291 47.2895 56.3521 47.3824 56.0507 47.604C55.7493 47.8255 55.5481 48.1576 55.4913 48.5274L55.3364 49.5417C55.2803 49.9116 55.3732 50.2886 55.5947 50.59C55.8163 50.8914 56.1484 51.0926 56.5181 51.1494L57.5325 51.3043C57.9023 51.3604 58.2793 51.2675 58.5807 51.046C58.8822 50.8244 59.0833 50.4923 59.1402 50.1225ZM56.7117 49.8815C56.6781 49.8764 56.6479 49.8581 56.6278 49.8307C56.6076 49.8033 56.5992 49.769 56.6043 49.7353L56.7592 48.721C56.7643 48.6874 56.7826 48.6572 56.81 48.637C56.8374 48.6169 56.8717 48.6084 56.9054 48.6136L57.9197 48.7685C57.9533 48.7736 57.9835 48.7919 58.0037 48.8193C58.0238 48.8467 58.0323 48.881 58.0271 48.9146L57.8722 49.9289C57.8671 49.9626 57.8488 49.9928 57.8214 50.0129C57.794 50.0331 57.7597 50.0415 57.7261 50.0364L56.7117 49.8815Z" stroke="#46344E"/>
<path d="M57.3196 53.9799C57.8556 54.062 58.4025 54.0378 58.9291 53.9086C59.456 53.7794 59.9522 53.5477 60.3895 53.2267C60.8268 52.9056 61.1966 52.5016 61.4778 52.0377C61.7589 51.5738 61.946 51.0591 62.0282 50.5229C62.1108 49.9758 62.0844 49.4179 61.9505 48.8811C61.8166 48.3443 61.5779 47.8393 61.2481 47.3951L47.588 31.4682C47.4175 31.2389 47.3 30.9747 47.2438 30.6945C47.2478 30.6556 47.2537 30.6169 47.2615 30.5786C47.6663 29.8164 47.8766 28.966 47.8736 28.103C47.8707 27.24 47.6545 26.391 47.2445 25.6316C46.1457 23.8888 44.4386 22.6164 42.4544 22.0614C42.2536 22.0021 42.0378 22.0212 41.8505 22.1147L41.642 22.2352L41.5408 22.368C41.4405 22.5017 41.3811 22.6617 41.37 22.8285C41.3589 22.9952 41.3965 23.1617 41.4783 23.3075L43.8483 27.5515L42.377 29.0037L40.2396 29.4861L37.8634 25.229C37.7842 25.0882 37.6674 24.9723 37.5259 24.8943C37.3845 24.8163 37.2241 24.7792 37.0628 24.7873L36.8298 24.8124L36.6887 24.8892C36.4936 24.9981 36.3492 25.1795 36.2867 25.394C35.6961 27.3511 35.8715 29.4595 36.7772 31.2921C37.3873 32.3055 38.3022 33.1001 39.3911 33.5622C40.4799 34.0243 41.687 34.1303 42.8398 33.8651C43.0828 34.0857 43.314 34.3189 43.5324 34.564L54.608 52.3392C54.9289 52.7786 55.334 53.1499 55.7996 53.4315C56.265 53.7131 56.7816 53.8995 57.3196 53.9799ZM55.7112 51.5937L44.5982 33.7723C44.2385 33.3351 43.8297 32.9407 43.3799 32.5969L43.131 32.4255L42.839 32.5022C41.9317 32.7723 40.9608 32.7368 40.0758 32.4009C39.1908 32.0651 38.4407 31.4476 37.9411 30.6436C37.3818 29.5166 37.1673 28.2498 37.3245 27.0015L39.1579 30.2848C39.2756 30.4914 39.4562 30.6552 39.6733 30.7524C39.8904 30.8495 40.1328 30.875 40.3654 30.825L42.7808 30.2786C42.8621 30.2585 42.9405 30.2284 43.0143 30.1889L44.9131 28.3733C45.0852 28.2054 45.1967 27.9851 45.2301 27.747C45.2636 27.5088 45.217 27.2664 45.0978 27.0576L43.2856 23.8126C44.4358 24.3494 45.4063 25.2072 46.0802 26.2828C46.3928 26.8606 46.5533 27.5085 46.5464 28.1654C46.5394 28.8223 46.3654 29.4666 46.0406 30.0376L45.9814 30.1958C45.953 30.317 45.9315 30.4397 45.9172 30.5634C45.932 31.1808 46.1442 31.7773 46.5227 32.2653L60.205 48.2239C60.5332 48.6713 60.7215 49.206 60.7461 49.7604C60.7708 50.3148 60.6306 50.8641 60.3434 51.3389C60.0562 51.8138 59.6347 52.1929 59.1323 52.4285C58.6298 52.664 58.0688 52.7455 57.5201 52.6625C56.8003 52.5572 56.1507 52.1734 55.7112 51.5937ZM59.3994 50.1187L59.5603 49.0649C59.6186 48.6807 59.5221 48.289 59.2919 47.9759C59.0617 47.6627 58.7167 47.4537 58.3325 47.3947L57.2787 47.2338C56.8945 47.1755 56.5028 47.272 56.1897 47.5022C55.8765 47.7324 55.6675 48.0774 55.6085 48.4615L55.4476 49.5153C55.3893 49.8996 55.4858 50.2912 55.716 50.6044C55.9462 50.9175 56.2912 51.1266 56.6753 51.1856L57.7291 51.3465C58.1134 51.4048 58.505 51.3083 58.8182 51.0781C59.1313 50.8479 59.3403 50.5029 59.3994 50.1187ZM56.8765 49.8683C56.8415 49.863 56.8101 49.844 56.7892 49.8155C56.7683 49.787 56.7595 49.7514 56.7648 49.7165L56.9258 48.6627C56.9311 48.6277 56.9501 48.5963 56.9786 48.5754C57.007 48.5545 57.0427 48.5457 57.0776 48.551L58.1314 48.712C58.1663 48.7173 58.1977 48.7363 58.2187 48.7648C58.2396 48.7932 58.2483 48.8289 58.243 48.8638L58.0821 49.9176C58.0768 49.9525 58.0578 49.9839 58.0293 50.0049C58.0008 50.0258 57.9652 50.0346 57.9303 50.0292L56.8765 49.8683Z" fill="#46344E"/>
<path d="M57.3196 53.9799C57.8556 54.062 58.4025 54.0378 58.9291 53.9086C59.456 53.7794 59.9522 53.5477 60.3895 53.2267C60.8268 52.9056 61.1966 52.5016 61.4778 52.0377C61.7589 51.5738 61.946 51.0591 62.0282 50.5229C62.1108 49.9758 62.0844 49.4179 61.9505 48.8811C61.8166 48.3443 61.5779 47.8393 61.2481 47.3951L47.588 31.4682C47.4175 31.2389 47.3 30.9747 47.2438 30.6945C47.2478 30.6556 47.2537 30.6169 47.2615 30.5786C47.6663 29.8164 47.8766 28.966 47.8736 28.103C47.8707 27.24 47.6545 26.391 47.2445 25.6316C46.1457 23.8888 44.4386 22.6164 42.4544 22.0614C42.2536 22.0021 42.0378 22.0212 41.8505 22.1147L41.642 22.2352L41.5408 22.368C41.4405 22.5017 41.3811 22.6617 41.37 22.8285C41.3589 22.9952 41.3965 23.1617 41.4783 23.3075L43.8483 27.5515L42.377 29.0037L40.2396 29.4861L37.8634 25.229C37.7842 25.0882 37.6674 24.9723 37.5259 24.8943C37.3845 24.8163 37.2241 24.7792 37.0628 24.7873L36.8298 24.8124L36.6887 24.8892C36.4936 24.9981 36.3492 25.1795 36.2867 25.394C35.6961 27.3511 35.8715 29.4595 36.7772 31.2921C37.3873 32.3055 38.3022 33.1001 39.3911 33.5622C40.4799 34.0243 41.687 34.1303 42.8398 33.8651C43.0828 34.0857 43.314 34.3189 43.5324 34.564L54.608 52.3392C54.9289 52.7786 55.334 53.1499 55.7996 53.4315C56.265 53.7131 56.7816 53.8995 57.3196 53.9799ZM55.7112 51.5937L44.5982 33.7723C44.2385 33.3351 43.8297 32.9407 43.3799 32.5969L43.131 32.4255L42.839 32.5022C41.9317 32.7723 40.9608 32.7368 40.0758 32.4009C39.1908 32.0651 38.4407 31.4476 37.9411 30.6436C37.3818 29.5166 37.1673 28.2498 37.3245 27.0015L39.1579 30.2848C39.2756 30.4914 39.4562 30.6552 39.6733 30.7524C39.8904 30.8495 40.1328 30.875 40.3654 30.825L42.7808 30.2786C42.8621 30.2585 42.9405 30.2284 43.0143 30.1889L44.9131 28.3733C45.0852 28.2054 45.1967 27.9851 45.2301 27.747C45.2636 27.5088 45.217 27.2664 45.0978 27.0576L43.2856 23.8126C44.4358 24.3494 45.4063 25.2072 46.0802 26.2828C46.3928 26.8606 46.5533 27.5085 46.5464 28.1654C46.5394 28.8223 46.3654 29.4666 46.0406 30.0376L45.9814 30.1958C45.953 30.317 45.9315 30.4397 45.9172 30.5634C45.932 31.1808 46.1442 31.7773 46.5227 32.2653L60.205 48.2239C60.5332 48.6713 60.7215 49.206 60.7461 49.7604C60.7708 50.3148 60.6306 50.8641 60.3434 51.3389C60.0562 51.8138 59.6347 52.1929 59.1323 52.4285C58.6298 52.664 58.0688 52.7455 57.5201 52.6625C56.8003 52.5572 56.1507 52.1734 55.7112 51.5937ZM59.3994 50.1187L59.5603 49.0649C59.6186 48.6807 59.5221 48.289 59.2919 47.9759C59.0617 47.6627 58.7167 47.4537 58.3325 47.3947L57.2787 47.2338C56.8945 47.1755 56.5028 47.272 56.1897 47.5022C55.8765 47.7324 55.6675 48.0774 55.6085 48.4615L55.4476 49.5153C55.3893 49.8996 55.4858 50.2912 55.716 50.6044C55.9462 50.9175 56.2912 51.1266 56.6753 51.1856L57.7291 51.3465C58.1134 51.4048 58.505 51.3083 58.8182 51.0781C59.1313 50.8479 59.3403 50.5029 59.3994 50.1187ZM56.8765 49.8683C56.8415 49.863 56.8101 49.844 56.7892 49.8155C56.7683 49.787 56.7595 49.7514 56.7648 49.7165L56.9258 48.6627C56.9311 48.6277 56.9501 48.5963 56.9786 48.5754C57.007 48.5545 57.0427 48.5457 57.0776 48.551L58.1314 48.712C58.1663 48.7173 58.1977 48.7363 58.2187 48.7648C58.2396 48.7932 58.2483 48.8289 58.243 48.8638L58.0821 49.9176C58.0768 49.9525 58.0578 49.9839 58.0293 50.0049C58.0008 50.0258 57.9652 50.0346 57.9303 50.0292L56.8765 49.8683Z" stroke="#46344E"/>
<path d="M67.8129 73.9465C69.2215 73.9465 70.3634 72.8047 70.3634 71.3961V68.8456V28.243C70.3634 27.2345 69.8567 26.2935 69.0147 25.7384L40.7943 7.13191C39.7925 6.47138 38.4935 6.47137 37.4916 7.13191L9.27125 25.7384C8.42931 26.2935 7.92261 27.2345 7.92261 28.243V71.5046C7.92261 72.9132 9.06448 74.0551 10.4731 74.0551C11.8816 74.0551 13.0235 72.9132 13.0235 71.5046V30.9925C13.0235 29.984 13.5302 29.0429 14.3722 28.4878L37.4917 13.2456C38.4935 12.5852 39.7925 12.5852 40.7943 13.2456L63.9137 28.4878C64.7557 29.0429 65.2625 29.984 65.2625 30.9925V71.3961C65.2625 72.8047 66.4043 73.9465 67.8129 73.9465Z" fill="#46344E"/>
<path d="M37.4922 5.56436C38.4938 4.90476 39.792 4.90507 40.7933 5.56512L74.7124 27.9246C75.5823 28.4981 76.7534 28.2459 77.3101 27.3652C77.8521 26.5079 77.6079 25.3745 76.761 24.8164L40.7938 1.11529C39.7922 0.455318 38.4939 0.45532 37.4923 1.11529L1.55845 24.7945C0.699781 25.3603 0.466759 26.5175 1.0395 27.3715C1.60562 28.2158 2.74651 28.4457 3.59544 27.8866L37.4922 5.56436Z" fill="#46344E"/>
<path fill-rule="evenodd" clip-rule="evenodd" d="M23.7363 38.1737C23.5678 37.7493 23.2482 37.407 22.8429 37.217C22.4376 37.0269 21.9771 37.0033 21.5555 37.151C21.1338 37.2987 20.7828 37.6065 20.5742 38.0117C20.3656 38.4168 20.315 38.8887 20.4328 39.3309L20.4993 39.5289L25.0612 51.0827L23.9128 51.3976C22.0776 51.9033 20.5499 53.4384 20.2598 55.5332C20.0116 57.3329 19.7791 60.0683 20.099 62.8866C20.4171 65.6797 21.305 68.7859 23.5021 71.0678C24.3096 71.9065 25.4685 72.0397 26.2515 72.0541C27.1447 72.0685 28.1742 71.9281 29.2316 71.7121C31.357 71.2766 33.9054 70.4704 36.3175 69.6137L37.0411 69.3528L38.4621 68.8237L39.8255 68.3L41.1084 67.7907L42.8178 67.0924L44.2546 66.4895L45.6826 65.8686C45.9628 65.7467 46.2073 65.5517 46.3918 65.3027C46.5764 65.0537 46.6946 64.7594 46.7349 64.449C46.7751 64.1385 46.736 63.8226 46.6213 63.5325C46.5066 63.2424 46.3204 62.9881 46.0811 62.7948C43.6743 60.8512 41.4143 58.616 39.5073 56.5518L38.5827 55.5368L38.1458 55.0437L37.3208 54.0953L36.9362 53.6418L35.898 52.391L35.309 51.6604C34.6927 50.8806 33.8829 50.2871 32.9657 49.9427C32.0484 49.5983 31.0577 49.5159 30.0986 49.7041L29.7507 49.7869L28.4626 50.1414L23.7363 38.1737ZM35.5834 57.493C37.4964 59.6743 39.5265 61.7435 41.6642 63.6911C40.6574 64.1086 39.6489 64.5189 38.6352 64.9148C37.7029 64.2313 36.8645 63.4213 36.1427 62.5069C35.8368 62.1317 35.552 61.7387 35.2897 61.3299L35.0415 60.9124C34.8115 60.5044 34.4351 60.2057 33.9933 60.0806C33.5515 59.9555 33.0797 60.014 32.6794 60.2436C32.2791 60.4731 31.9824 60.8554 31.8531 61.3079C31.7237 61.7605 31.7722 62.2473 31.988 62.6635C32.397 63.4193 32.9091 64.1284 33.4422 64.7942C33.8739 65.3353 34.3361 65.8497 34.8265 66.3347C34.019 66.6191 33.2115 66.889 32.4285 67.1374C31.7765 66.6749 31.0127 65.7247 30.3205 64.6449C30.0426 64.213 29.7787 63.7684 29.5305 63.3131L29.1739 62.6221C28.9683 62.1942 28.6061 61.8679 28.1668 61.715C27.7276 61.5621 27.2474 61.5951 26.8318 61.8068C26.4162 62.0185 26.0993 62.3915 25.9508 62.8437C25.8023 63.296 25.8344 63.7905 26.04 64.2184C26.4403 65.0498 26.9069 65.8542 27.4033 66.6281C27.7466 67.1679 28.1165 67.6893 28.5115 68.1902L27.7756 68.3378C27.1429 68.4583 26.4752 68.5429 25.8722 68.4152C24.5333 66.9484 23.8394 64.8194 23.572 62.4673C23.5091 61.922 23.4706 61.3767 23.4532 60.8404L35.5834 57.493ZM30.6561 53.2638C31.0104 53.1729 31.3826 53.1886 31.7284 53.3092C32.0742 53.4298 32.3791 53.6502 32.6068 53.9441L33.0315 54.4714L23.5965 57.0737L23.6786 56.3683C23.692 56.259 23.706 56.1498 23.7206 56.0407C23.7853 55.5854 24.0981 55.1571 24.6137 54.9429L24.8165 54.8745L30.6561 53.2638ZM44.2091 47.3574L44.0972 47.6093C43.6206 48.6245 42.87 49.4767 41.9351 50.0641L41.7603 50.1684C41.7422 50.1792 41.7271 50.1946 41.7166 50.2133C41.7061 50.2319 41.7006 50.2531 41.7006 50.2746C41.7006 50.2962 41.7061 50.3173 41.7166 50.336C41.7271 50.3546 41.7422 50.3701 41.7603 50.3808L41.9351 50.4852C42.8698 51.0737 43.6199 51.9273 44.0955 52.9435L44.2074 53.1937C44.2171 53.2164 44.233 53.2357 44.2531 53.2492C44.2733 53.2628 44.2969 53.27 44.321 53.27C44.3451 53.27 44.3686 53.2628 44.3888 53.2492C44.409 53.2357 44.4249 53.2164 44.4346 53.1937L44.5465 52.9417C45.0231 51.9265 45.7737 51.0743 46.7086 50.487L46.8834 50.3826C46.9015 50.3719 46.9166 50.3564 46.9271 50.3378C46.9376 50.3191 46.9431 50.298 46.9431 50.2764C46.9431 50.2549 46.9376 50.2337 46.9271 50.2151C46.9166 50.1964 46.9015 50.181 46.8834 50.1702L46.7086 50.0659C45.7745 49.477 45.0251 48.6235 44.5499 47.6075L44.4381 47.3574C44.4284 47.3347 44.4125 47.3154 44.3923 47.3018C44.3721 47.2882 44.3486 47.281 44.3245 47.281C44.3004 47.281 44.2768 47.2882 44.2566 47.3018C44.2365 47.3154 44.2188 47.3347 44.2091 47.3574ZM39.2609 38.6128C39.191 38.4509 38.9707 38.4509 38.9008 38.6128L38.7225 39.0124C37.9634 40.6284 36.7679 41.9849 35.2792 42.9194L35.0048 43.0868C34.9753 43.1036 34.9507 43.1282 34.9336 43.1581C34.9165 43.1881 34.9074 43.2221 34.9074 43.2569C34.9074 43.2916 34.9165 43.3257 34.9336 43.3556C34.9507 43.3855 34.9753 43.4101 35.0048 43.4269L35.281 43.5925C36.7699 44.5275 37.9654 45.8846 38.7243 47.5013L38.8991 47.9009C38.9145 47.9371 38.9398 47.9679 38.9719 47.9895C39.0041 48.0111 39.0416 48.0226 39.08 48.0226C39.1184 48.0226 39.1559 48.0111 39.188 47.9895C39.2202 47.9679 39.2455 47.9371 39.2609 47.9009L39.4392 47.5013C40.1981 45.8846 41.3936 44.5275 42.8825 43.5925L43.1586 43.4269C43.1881 43.4101 43.2127 43.3855 43.2299 43.3556C43.247 43.3257 43.256 43.2916 43.256 43.2569C43.256 43.2221 43.247 43.1881 43.2299 43.1581C43.2127 43.1282 43.1881 43.1036 43.1586 43.0868L42.8807 42.9194C41.3921 41.9849 40.1966 40.6284 39.4374 39.0124L39.2609 38.6128Z" fill="#8D9297"/>
<path fill-rule="evenodd" clip-rule="evenodd" d="M23.7363 38.1737C23.5678 37.7493 23.2482 37.407 22.8429 37.217C22.4376 37.0269 21.9771 37.0033 21.5555 37.151C21.1338 37.2987 20.7828 37.6065 20.5742 38.0117C20.3656 38.4168 20.315 38.8887 20.4328 39.3309L20.4993 39.5289L25.0612 51.0827L23.9128 51.3976C22.0776 51.9033 20.5499 53.4384 20.2598 55.5332C20.0116 57.3329 19.7791 60.0683 20.099 62.8866C20.4171 65.6797 21.305 68.7859 23.5021 71.0678C24.3096 71.9065 25.4685 72.0397 26.2515 72.0541C27.1447 72.0685 28.1742 71.9281 29.2316 71.7121C31.357 71.2766 33.9054 70.4704 36.3175 69.6137L37.0411 69.3528L38.4621 68.8237L39.8255 68.3L41.1084 67.7907L42.8178 67.0924L44.2546 66.4895L45.6826 65.8686C45.9628 65.7467 46.2073 65.5517 46.3918 65.3027C46.5764 65.0537 46.6946 64.7594 46.7349 64.449C46.7751 64.1385 46.736 63.8226 46.6213 63.5325C46.5066 63.2424 46.3204 62.9881 46.0811 62.7948C43.6743 60.8512 41.4143 58.616 39.5073 56.5518L38.5827 55.5368L38.1458 55.0437L37.3208 54.0953L36.9362 53.6418L35.898 52.391L35.309 51.6604C34.6927 50.8806 33.8829 50.2871 32.9657 49.9427C32.0484 49.5983 31.0577 49.5159 30.0986 49.7041L29.7507 49.7869L28.4626 50.1414L23.7363 38.1737ZM35.5834 57.493C37.4964 59.6743 39.5265 61.7435 41.6642 63.6911C40.6574 64.1086 39.6489 64.5189 38.6352 64.9148C37.7029 64.2313 36.8645 63.4213 36.1427 62.5069C35.8368 62.1317 35.552 61.7387 35.2897 61.3299L35.0415 60.9124C34.8115 60.5044 34.4351 60.2057 33.9933 60.0806C33.5515 59.9555 33.0797 60.014 32.6794 60.2436C32.2791 60.4731 31.9824 60.8554 31.8531 61.3079C31.7237 61.7605 31.7722 62.2473 31.988 62.6635C32.397 63.4193 32.9091 64.1284 33.4422 64.7942C33.8739 65.3353 34.3361 65.8497 34.8265 66.3347C34.019 66.6191 33.2115 66.889 32.4285 67.1374C31.7765 66.6749 31.0127 65.7247 30.3205 64.6449C30.0426 64.213 29.7787 63.7684 29.5305 63.3131L29.1739 62.6221C28.9683 62.1942 28.6061 61.8679 28.1668 61.715C27.7276 61.5621 27.2474 61.5951 26.8318 61.8068C26.4162 62.0185 26.0993 62.3915 25.9508 62.8437C25.8023 63.296 25.8344 63.7905 26.04 64.2184C26.4403 65.0498 26.9069 65.8542 27.4033 66.6281C27.7466 67.1679 28.1165 67.6893 28.5115 68.1902L27.7756 68.3378C27.1429 68.4583 26.4752 68.5429 25.8722 68.4152C24.5333 66.9484 23.8394 64.8194 23.572 62.4673C23.5091 61.922 23.4706 61.3767 23.4532 60.8404L35.5834 57.493ZM30.6561 53.2638C31.0104 53.1729 31.3826 53.1886 31.7284 53.3092C32.0742 53.4298 32.3791 53.6502 32.6068 53.9441L33.0315 54.4714L23.5965 57.0737L23.6786 56.3683C23.692 56.259 23.706 56.1498 23.7206 56.0407C23.7853 55.5854 24.0981 55.1571 24.6137 54.9429L24.8165 54.8745L30.6561 53.2638ZM44.2091 47.3574L44.0972 47.6093C43.6206 48.6245 42.87 49.4767 41.9351 50.0641L41.7603 50.1684C41.7422 50.1792 41.7271 50.1946 41.7166 50.2133C41.7061 50.2319 41.7006 50.2531 41.7006 50.2746C41.7006 50.2962 41.7061 50.3173 41.7166 50.336C41.7271 50.3546 41.7422 50.3701 41.7603 50.3808L41.9351 50.4852C42.8698 51.0737 43.6199 51.9273 44.0955 52.9435L44.2074 53.1937C44.2171 53.2164 44.233 53.2357 44.2531 53.2492C44.2733 53.2628 44.2969 53.27 44.321 53.27C44.3451 53.27 44.3686 53.2628 44.3888 53.2492C44.409 53.2357 44.4249 53.2164 44.4346 53.1937L44.5465 52.9417C45.0231 51.9265 45.7737 51.0743 46.7086 50.487L46.8834 50.3826C46.9015 50.3719 46.9166 50.3564 46.9271 50.3378C46.9376 50.3191 46.9431 50.298 46.9431 50.2764C46.9431 50.2549 46.9376 50.2337 46.9271 50.2151C46.9166 50.1964 46.9015 50.181 46.8834 50.1702L46.7086 50.0659C45.7745 49.477 45.0251 48.6235 44.5499 47.6075L44.4381 47.3574C44.4284 47.3347 44.4125 47.3154 44.3923 47.3018C44.3721 47.2882 44.3486 47.281 44.3245 47.281C44.3004 47.281 44.2768 47.2882 44.2566 47.3018C44.2365 47.3154 44.2188 47.3347 44.2091 47.3574ZM39.2609 38.6128C39.191 38.4509 38.9707 38.4509 38.9008 38.6128L38.7225 39.0124C37.9634 40.6284 36.7679 41.9849 35.2792 42.9194L35.0048 43.0868C34.9753 43.1036 34.9507 43.1282 34.9336 43.1581C34.9165 43.1881 34.9074 43.2221 34.9074 43.2569C34.9074 43.2916 34.9165 43.3257 34.9336 43.3556C34.9507 43.3855 34.9753 43.4101 35.0048 43.4269L35.281 43.5925C36.7699 44.5275 37.9654 45.8846 38.7243 47.5013L38.8991 47.9009C38.9145 47.9371 38.9398 47.9679 38.9719 47.9895C39.0041 48.0111 39.0416 48.0226 39.08 48.0226C39.1184 48.0226 39.1559 48.0111 39.188 47.9895C39.2202 47.9679 39.2455 47.9371 39.2609 47.9009L39.4392 47.5013C40.1981 45.8846 41.3936 44.5275 42.8825 43.5925L43.1586 43.4269C43.1881 43.4101 43.2127 43.3855 43.2299 43.3556C43.247 43.3257 43.256 43.2916 43.256 43.2569C43.256 43.2221 43.247 43.1881 43.2299 43.1581C43.2127 43.1282 43.1881 43.1036 43.1586 43.0868L42.8807 42.9194C41.3921 41.9849 40.1966 40.6284 39.4374 39.0124L39.2609 38.6128Z" fill="#46344E"/>
</svg>
