<svg width="275" height="75" viewBox="0 0 275 75" fill="none" xmlns="http://www.w3.org/2000/svg">
    <path d="M92.6721 52.3881C91.5374 52.3881 90.4274 52.3018 89.3421 52.1291C88.2568 51.9564 87.2331 51.6974 86.2711 51.3521C85.3091 50.9821 84.4458 50.5381 83.6811 50.0201C83.3111 49.7488 83.0521 49.4404 82.9041 49.0951C82.7808 48.7498 82.7438 48.4168 82.7931 48.0961C82.8671 47.7508 83.0151 47.4548 83.2371 47.2081C83.4591 46.9614 83.7304 46.8134 84.0511 46.7641C84.3718 46.6901 84.7294 46.7888 85.1241 47.0601C86.2341 47.7754 87.4058 48.3058 88.6391 48.6511C89.8724 48.9718 91.2168 49.1321 92.6721 49.1321C94.7688 49.1321 96.3104 48.7621 97.2971 48.0221C98.3084 47.2574 98.8141 46.2708 98.8141 45.0621C98.8141 44.0754 98.4564 43.2984 97.7411 42.7311C97.0258 42.1391 95.8294 41.6704 94.1521 41.3251L90.1931 40.5111C87.8498 40.0178 86.0984 39.2038 84.9391 38.0691C83.8044 36.9344 83.2371 35.4051 83.2371 33.4811C83.2371 32.3218 83.4714 31.2611 83.9401 30.2991C84.4334 29.3371 85.1118 28.5108 85.9751 27.8201C86.8384 27.1048 87.8744 26.5621 89.0831 26.1921C90.2918 25.8221 91.6114 25.6371 93.0421 25.6371C94.5714 25.6371 96.0021 25.8344 97.3341 26.2291C98.6908 26.6238 99.8994 27.2281 100.96 28.0421C101.281 28.2641 101.49 28.5478 101.589 28.8931C101.712 29.2138 101.737 29.5344 101.663 29.8551C101.614 30.1758 101.478 30.4471 101.256 30.6691C101.034 30.8911 100.75 31.0268 100.405 31.0761C100.06 31.1008 99.6774 30.9774 99.2581 30.7061C98.2961 30.0648 97.3094 29.6084 96.2981 29.3371C95.3114 29.0411 94.2138 28.8931 93.0051 28.8931C91.7964 28.8931 90.7358 29.0781 89.8231 29.4481C88.9351 29.8181 88.2444 30.3361 87.7511 31.0021C87.2824 31.6681 87.0481 32.4574 87.0481 33.3701C87.0481 34.4061 87.3811 35.2324 88.0471 35.8491C88.7131 36.4658 89.8231 36.9344 91.3771 37.2551L95.2991 38.0691C97.7658 38.5871 99.6034 39.3888 100.812 40.4741C102.021 41.5594 102.625 43.0024 102.625 44.8031C102.625 45.9624 102.391 47.0108 101.922 47.9481C101.453 48.8608 100.787 49.6501 99.9241 50.3161C99.0608 50.9821 98.0124 51.5001 96.7791 51.8701C95.5704 52.2154 94.2014 52.3881 92.6721 52.3881ZM110.916 52.0551C110.25 52.0551 109.732 51.8824 109.362 51.5371C109.016 51.1671 108.844 50.6491 108.844 49.9831V28.0421C108.844 27.3761 109.016 26.8704 109.362 26.5251C109.732 26.1551 110.25 25.9701 110.916 25.9701H124.421C124.939 25.9701 125.333 26.1058 125.605 26.3771C125.876 26.6238 126.012 26.9938 126.012 27.4871C126.012 28.0051 125.876 28.3998 125.605 28.6711C125.333 28.9424 124.939 29.0781 124.421 29.0781H112.544V37.2551H123.607C124.149 37.2551 124.544 37.3908 124.791 37.6621C125.062 37.9334 125.198 38.3158 125.198 38.8091C125.198 39.3271 125.062 39.7218 124.791 39.9931C124.544 40.2398 124.149 40.3631 123.607 40.3631H112.544V48.9471H124.421C124.939 48.9471 125.333 49.0828 125.605 49.3541C125.876 49.6254 126.012 50.0078 126.012 50.5011C126.012 51.0191 125.876 51.4138 125.605 51.6851C125.333 51.9318 124.939 52.0551 124.421 52.0551H110.916ZM134.406 52.3141C133.789 52.3141 133.308 52.1414 132.963 51.7961C132.642 51.4508 132.482 50.9698 132.482 50.3531V27.9311C132.482 27.2898 132.654 26.8088 133 26.4881C133.345 26.1428 133.826 25.9701 134.443 25.9701H143.286C146.098 25.9701 148.268 26.6361 149.798 27.9681C151.327 29.3001 152.092 31.1871 152.092 33.6291C152.092 35.2078 151.746 36.5644 151.056 37.6991C150.365 38.8338 149.354 39.6971 148.022 40.2891C146.714 40.8811 145.136 41.1771 143.286 41.1771L143.619 40.6591H144.581C145.567 40.6591 146.418 40.9058 147.134 41.3991C147.874 41.8924 148.54 42.6818 149.132 43.7671L152.314 49.6871C152.56 50.1311 152.671 50.5628 152.647 50.9821C152.647 51.3768 152.499 51.6974 152.203 51.9441C151.931 52.1908 151.537 52.3141 151.019 52.3141C150.476 52.3141 150.032 52.2031 149.687 51.9811C149.366 51.7344 149.07 51.3768 148.799 50.9081L144.914 43.7301C144.396 42.7681 143.804 42.1268 143.138 41.8061C142.472 41.4608 141.596 41.2881 140.511 41.2881H136.33V50.3531C136.33 50.9698 136.169 51.4508 135.849 51.7961C135.528 52.1414 135.047 52.3141 134.406 52.3141ZM136.33 38.4021H142.657C144.531 38.4021 145.95 38.0074 146.912 37.2181C147.874 36.4288 148.355 35.2571 148.355 33.7031C148.355 32.1738 147.874 31.0144 146.912 30.2251C145.95 29.4358 144.531 29.0411 142.657 29.0411H136.33V38.4021ZM168.854 52.3141C168.312 52.3141 167.855 52.1908 167.485 51.9441C167.14 51.6728 166.856 51.2781 166.634 50.7601L156.681 28.2271C156.484 27.7091 156.435 27.2651 156.533 26.8951C156.632 26.5251 156.829 26.2414 157.125 26.0441C157.446 25.8221 157.828 25.7111 158.272 25.7111C158.84 25.7111 159.271 25.8344 159.567 26.0811C159.863 26.3278 160.11 26.6978 160.307 27.1911L169.631 48.7991H168.262L177.512 27.1541C177.734 26.6854 177.993 26.3278 178.289 26.0811C178.61 25.8344 179.042 25.7111 179.584 25.7111C180.028 25.7111 180.386 25.8221 180.657 26.0441C180.953 26.2414 181.138 26.5251 181.212 26.8951C181.286 27.2651 181.212 27.7091 180.99 28.2271L171.074 50.7601C170.852 51.2781 170.569 51.6728 170.223 51.9441C169.878 52.1908 169.422 52.3141 168.854 52.3141ZM188.619 52.3141C188.003 52.3141 187.522 52.1414 187.176 51.7961C186.856 51.4508 186.695 50.9698 186.695 50.3531V27.6721C186.695 27.0308 186.856 26.5498 187.176 26.2291C187.522 25.8838 188.003 25.7111 188.619 25.7111C189.236 25.7111 189.705 25.8838 190.025 26.2291C190.371 26.5498 190.543 27.0308 190.543 27.6721V50.3531C190.543 50.9698 190.383 51.4508 190.062 51.7961C189.742 52.1414 189.261 52.3141 188.619 52.3141ZM210.138 52.3881C207.499 52.3881 205.242 51.8454 203.367 50.7601C201.492 49.6748 200.049 48.1331 199.038 46.1351C198.051 44.1124 197.558 41.7321 197.558 38.9941C197.558 36.9468 197.842 35.1091 198.409 33.4811C198.976 31.8284 199.79 30.4224 200.851 29.2631C201.936 28.0791 203.256 27.1788 204.81 26.5621C206.389 25.9454 208.165 25.6371 210.138 25.6371C211.593 25.6371 212.987 25.8344 214.319 26.2291C215.676 26.6238 216.847 27.1911 217.834 27.9311C218.253 28.2024 218.525 28.5354 218.648 28.9301C218.796 29.3001 218.821 29.6578 218.722 30.0031C218.648 30.3484 218.488 30.6444 218.241 30.8911C217.994 31.1131 217.674 31.2364 217.279 31.2611C216.909 31.2858 216.502 31.1501 216.058 30.8541C215.244 30.2374 214.344 29.7811 213.357 29.4851C212.37 29.1891 211.334 29.0411 210.249 29.0411C208.374 29.0411 206.796 29.4358 205.513 30.2251C204.23 30.9898 203.256 32.1121 202.59 33.5921C201.924 35.0721 201.591 36.8728 201.591 38.9941C201.591 41.1154 201.924 42.9284 202.59 44.4331C203.256 45.9131 204.23 47.0478 205.513 47.8371C206.796 48.6018 208.374 48.9841 210.249 48.9841C211.334 48.9841 212.37 48.8361 213.357 48.5401C214.368 48.2194 215.318 47.7508 216.206 47.1341C216.65 46.8628 217.045 46.7394 217.39 46.7641C217.76 46.7888 218.068 46.9121 218.315 47.1341C218.562 47.3561 218.722 47.6398 218.796 47.9851C218.895 48.3058 218.882 48.6511 218.759 49.0211C218.66 49.3664 218.426 49.6624 218.056 49.9091C217.045 50.7231 215.848 51.3398 214.467 51.7591C213.086 52.1784 211.643 52.3881 210.138 52.3881ZM227.372 52.0551C226.706 52.0551 226.188 51.8824 225.818 51.5371C225.472 51.1671 225.3 50.6491 225.3 49.9831V28.0421C225.3 27.3761 225.472 26.8704 225.818 26.5251C226.188 26.1551 226.706 25.9701 227.372 25.9701H240.877C241.395 25.9701 241.789 26.1058 242.061 26.3771C242.332 26.6238 242.468 26.9938 242.468 27.4871C242.468 28.0051 242.332 28.3998 242.061 28.6711C241.789 28.9424 241.395 29.0781 240.877 29.0781H229V37.2551H240.063C240.605 37.2551 241 37.3908 241.247 37.6621C241.518 37.9334 241.654 38.3158 241.654 38.8091C241.654 39.3271 241.518 39.7218 241.247 39.9931C241 40.2398 240.605 40.3631 240.063 40.3631H229V48.9471H240.877C241.395 48.9471 241.789 49.0828 242.061 49.3541C242.332 49.6254 242.468 50.0078 242.468 50.5011C242.468 51.0191 242.332 51.4138 242.061 51.6851C241.789 51.9318 241.395 52.0551 240.877 52.0551H227.372Z" fill="#FFFFFF"/>
    <path d="M87.4311 69.1811C86.4604 69.1811 85.6298 68.9757 84.9391 68.5651C84.2484 68.1544 83.7164 67.5711 83.3431 66.8151C82.9791 66.0591 82.7971 65.1584 82.7971 64.1131C82.7971 63.3291 82.8998 62.6291 83.1051 62.0131C83.3198 61.3877 83.6231 60.8604 84.0151 60.4311C84.4164 59.9924 84.9064 59.6564 85.4851 59.4231C86.0638 59.1804 86.7124 59.0591 87.4311 59.0591C88.0098 59.0591 88.5604 59.1431 89.0831 59.3111C89.6058 59.4697 90.0584 59.7077 90.4411 60.0251C90.5624 60.1184 90.6418 60.2257 90.6791 60.3471C90.7258 60.4591 90.7304 60.5711 90.6931 60.6831C90.6651 60.7857 90.6091 60.8744 90.5251 60.9491C90.4504 61.0144 90.3571 61.0471 90.2451 61.0471C90.1331 61.0471 90.0071 61.0004 89.8671 60.9071C89.5311 60.6364 89.1624 60.4357 88.7611 60.3051C88.3598 60.1744 87.9258 60.1091 87.4591 60.1091C86.7218 60.1091 86.0964 60.2677 85.5831 60.5851C85.0698 60.8931 84.6824 61.3457 84.4211 61.9431C84.1598 62.5404 84.0291 63.2637 84.0291 64.1131C84.0291 64.9624 84.1598 65.6904 84.4211 66.2971C84.6824 66.8944 85.0698 67.3517 85.5831 67.6691C86.0964 67.9771 86.7218 68.1311 87.4591 68.1311C87.9164 68.1311 88.3504 68.0657 88.7611 67.9351C89.1718 67.7951 89.5498 67.5897 89.8951 67.3191C90.0351 67.2257 90.1611 67.1837 90.2731 67.1931C90.3851 67.1931 90.4784 67.2257 90.5531 67.2911C90.6278 67.3564 90.6791 67.4404 90.7071 67.5431C90.7444 67.6457 90.7444 67.7531 90.7071 67.8651C90.6791 67.9771 90.6091 68.0751 90.4971 68.1591C90.1051 68.4951 89.6431 68.7517 89.1111 68.9291C88.5884 69.0971 88.0284 69.1811 87.4311 69.1811ZM95.4628 69.1811C94.8002 69.1811 94.2262 69.0364 93.7408 68.7471C93.2555 68.4577 92.8775 68.0517 92.6068 67.5291C92.3455 66.9971 92.2148 66.3717 92.2148 65.6531C92.2148 65.1117 92.2895 64.6264 92.4388 64.1971C92.5882 63.7584 92.8075 63.3851 93.0968 63.0771C93.3862 62.7691 93.7268 62.5357 94.1188 62.3771C94.5202 62.2091 94.9682 62.1251 95.4628 62.1251C96.1255 62.1251 96.6995 62.2697 97.1848 62.5591C97.6702 62.8484 98.0435 63.2591 98.3048 63.7911C98.5755 64.3137 98.7109 64.9344 98.7109 65.6531C98.7109 66.1944 98.6362 66.6797 98.4868 67.1091C98.3375 67.5384 98.1182 67.9117 97.8288 68.2291C97.5395 68.5371 97.1942 68.7751 96.7928 68.9431C96.4008 69.1017 95.9575 69.1811 95.4628 69.1811ZM95.4628 68.2711C95.8828 68.2711 96.2515 68.1684 96.5688 67.9631C96.8862 67.7577 97.1288 67.4591 97.2968 67.0671C97.4742 66.6751 97.5628 66.2037 97.5628 65.6531C97.5628 64.8037 97.3715 64.1551 96.9888 63.7071C96.6155 63.2591 96.1068 63.0351 95.4628 63.0351C95.0335 63.0351 94.6602 63.1377 94.3428 63.3431C94.0348 63.5391 93.7922 63.8331 93.6148 64.2251C93.4468 64.6077 93.3628 65.0837 93.3628 65.6531C93.3628 66.4931 93.5542 67.1417 93.9368 67.5991C94.3195 68.0471 94.8282 68.2711 95.4628 68.2711ZM101.702 69.1531C101.515 69.1531 101.375 69.1017 101.282 68.9991C101.189 68.8964 101.142 68.7517 101.142 68.5651V62.7271C101.142 62.5404 101.189 62.4004 101.282 62.3071C101.375 62.2044 101.511 62.1531 101.688 62.1531C101.865 62.1531 102.001 62.2044 102.094 62.3071C102.197 62.4004 102.248 62.5404 102.248 62.7271V63.9591L102.094 63.7631C102.271 63.2404 102.556 62.8391 102.948 62.5591C103.349 62.2697 103.825 62.1251 104.376 62.1251C104.955 62.1251 105.421 62.2651 105.776 62.5451C106.14 62.8157 106.383 63.2404 106.504 63.8191H106.294C106.462 63.2964 106.761 62.8857 107.19 62.5871C107.629 62.2791 108.137 62.1251 108.716 62.1251C109.229 62.1251 109.649 62.2231 109.976 62.4191C110.312 62.6151 110.564 62.9137 110.732 63.3151C110.9 63.7071 110.984 64.2064 110.984 64.8131V68.5651C110.984 68.7517 110.933 68.8964 110.83 68.9991C110.737 69.1017 110.597 69.1531 110.41 69.1531C110.233 69.1531 110.093 69.1017 109.99 68.9991C109.897 68.8964 109.85 68.7517 109.85 68.5651V64.8691C109.85 64.2437 109.743 63.7864 109.528 63.4971C109.313 63.1984 108.949 63.0491 108.436 63.0491C107.876 63.0491 107.433 63.2451 107.106 63.6371C106.789 64.0197 106.63 64.5424 106.63 65.2051V68.5651C106.63 68.7517 106.579 68.8964 106.476 68.9991C106.383 69.1017 106.243 69.1531 106.056 69.1531C105.879 69.1531 105.739 69.1017 105.636 68.9991C105.543 68.8964 105.496 68.7517 105.496 68.5651V64.8691C105.496 64.2437 105.384 63.7864 105.16 63.4971C104.945 63.1984 104.586 63.0491 104.082 63.0491C103.522 63.0491 103.079 63.2451 102.752 63.6371C102.435 64.0197 102.276 64.5424 102.276 65.2051V68.5651C102.276 68.9571 102.085 69.1531 101.702 69.1531ZM114.392 69.1531C114.206 69.1531 114.066 69.1017 113.972 68.9991C113.879 68.8964 113.832 68.7517 113.832 68.5651V62.7271C113.832 62.5404 113.879 62.4004 113.972 62.3071C114.066 62.2044 114.201 62.1531 114.378 62.1531C114.556 62.1531 114.691 62.2044 114.784 62.3071C114.887 62.4004 114.938 62.5404 114.938 62.7271V63.9591L114.784 63.7631C114.962 63.2404 115.246 62.8391 115.638 62.5591C116.04 62.2697 116.516 62.1251 117.066 62.1251C117.645 62.1251 118.112 62.2651 118.466 62.5451C118.83 62.8157 119.073 63.2404 119.194 63.8191H118.984C119.152 63.2964 119.451 62.8857 119.88 62.5871C120.319 62.2791 120.828 62.1251 121.406 62.1251C121.92 62.1251 122.34 62.2231 122.666 62.4191C123.002 62.6151 123.254 62.9137 123.422 63.3151C123.59 63.7071 123.674 64.2064 123.674 64.8131V68.5651C123.674 68.7517 123.623 68.8964 123.52 68.9991C123.427 69.1017 123.287 69.1531 123.1 69.1531C122.923 69.1531 122.783 69.1017 122.68 68.9991C122.587 68.8964 122.54 68.7517 122.54 68.5651V64.8691C122.54 64.2437 122.433 63.7864 122.218 63.4971C122.004 63.1984 121.64 63.0491 121.126 63.0491C120.566 63.0491 120.123 63.2451 119.796 63.6371C119.479 64.0197 119.32 64.5424 119.32 65.2051V68.5651C119.32 68.7517 119.269 68.8964 119.166 68.9991C119.073 69.1017 118.933 69.1531 118.746 69.1531C118.569 69.1531 118.429 69.1017 118.326 68.9991C118.233 68.8964 118.186 68.7517 118.186 68.5651V64.8691C118.186 64.2437 118.074 63.7864 117.85 63.4971C117.636 63.1984 117.276 63.0491 116.772 63.0491C116.212 63.0491 115.769 63.2451 115.442 63.6371C115.125 64.0197 114.966 64.5424 114.966 65.2051V68.5651C114.966 68.9571 114.775 69.1531 114.392 69.1531ZM129.561 69.1811C128.842 69.1811 128.221 69.0411 127.699 68.7611C127.185 68.4717 126.784 68.0657 126.495 67.5431C126.215 67.0204 126.075 66.3951 126.075 65.6671C126.075 64.9577 126.215 64.3417 126.495 63.8191C126.775 63.2871 127.157 62.8717 127.643 62.5731C128.137 62.2744 128.707 62.1251 129.351 62.1251C129.808 62.1251 130.219 62.2044 130.583 62.3631C130.947 62.5124 131.255 62.7317 131.507 63.0211C131.768 63.3104 131.964 63.6604 132.095 64.0711C132.235 64.4817 132.305 64.9437 132.305 65.4571C132.305 65.6064 132.263 65.7184 132.179 65.7931C132.095 65.8584 131.973 65.8911 131.815 65.8911H126.943V65.1491H131.549L131.325 65.3311C131.325 64.8271 131.25 64.4024 131.101 64.0571C130.951 63.7024 130.732 63.4317 130.443 63.2451C130.163 63.0584 129.808 62.9651 129.379 62.9651C128.903 62.9651 128.497 63.0771 128.161 63.3011C127.834 63.5157 127.587 63.8191 127.419 64.2111C127.251 64.5937 127.167 65.0417 127.167 65.5551V65.6391C127.167 66.4977 127.372 67.1511 127.783 67.5991C128.203 68.0471 128.795 68.2711 129.561 68.2711C129.878 68.2711 130.191 68.2291 130.499 68.1451C130.816 68.0611 131.124 67.9211 131.423 67.7251C131.553 67.6411 131.67 67.6037 131.773 67.6131C131.885 67.6131 131.973 67.6457 132.039 67.7111C132.104 67.7671 132.146 67.8417 132.165 67.9351C132.193 68.0191 132.183 68.1124 132.137 68.2151C132.099 68.3177 132.02 68.4064 131.899 68.4811C131.591 68.7051 131.227 68.8777 130.807 68.9991C130.387 69.1204 129.971 69.1811 129.561 69.1811ZM135.22 69.1531C135.033 69.1531 134.888 69.1017 134.786 68.9991C134.692 68.8964 134.646 68.7517 134.646 68.5651V62.7271C134.646 62.5404 134.692 62.4004 134.786 62.3071C134.879 62.2044 135.014 62.1531 135.192 62.1531C135.369 62.1531 135.504 62.2044 135.598 62.3071C135.7 62.4004 135.752 62.5404 135.752 62.7271V63.8611H135.612C135.761 63.3104 136.046 62.8857 136.466 62.5871C136.886 62.2884 137.404 62.1297 138.02 62.1111C138.16 62.1017 138.272 62.1344 138.356 62.2091C138.44 62.2744 138.486 62.3911 138.496 62.5591C138.505 62.7177 138.468 62.8437 138.384 62.9371C138.3 63.0304 138.169 63.0864 137.992 63.1051L137.768 63.1331C137.133 63.1891 136.643 63.3944 136.298 63.7491C135.962 64.0944 135.794 64.5704 135.794 65.1771V68.5651C135.794 68.7517 135.742 68.8964 135.64 68.9991C135.546 69.1017 135.406 69.1531 135.22 69.1531ZM143.165 69.1811C142.484 69.1811 141.896 69.0317 141.401 68.7331C140.907 68.4344 140.524 68.0191 140.253 67.4871C139.992 66.9457 139.861 66.3204 139.861 65.6111C139.861 65.0697 139.936 64.5844 140.085 64.1551C140.235 63.7257 140.454 63.3617 140.743 63.0631C141.033 62.7551 141.378 62.5217 141.779 62.3631C142.19 62.2044 142.652 62.1251 143.165 62.1251C143.501 62.1251 143.851 62.1764 144.215 62.2791C144.579 62.3817 144.911 62.5591 145.209 62.8111C145.303 62.8764 145.363 62.9557 145.391 63.0491C145.419 63.1424 145.419 63.2357 145.391 63.3291C145.363 63.4131 145.317 63.4877 145.251 63.5531C145.186 63.6091 145.102 63.6417 144.999 63.6511C144.906 63.6604 144.808 63.6277 144.705 63.5531C144.463 63.3664 144.215 63.2357 143.963 63.1611C143.711 63.0864 143.469 63.0491 143.235 63.0491C142.871 63.0491 142.554 63.1097 142.283 63.2311C142.013 63.3431 141.784 63.5064 141.597 63.7211C141.411 63.9357 141.266 64.2017 141.163 64.5191C141.07 64.8364 141.023 65.2051 141.023 65.6251C141.023 66.4371 141.215 67.0811 141.597 67.5571C141.98 68.0237 142.526 68.2571 143.235 68.2571C143.469 68.2571 143.707 68.2197 143.949 68.1451C144.201 68.0704 144.453 67.9397 144.705 67.7531C144.808 67.6784 144.906 67.6457 144.999 67.6551C145.093 67.6644 145.172 67.7017 145.237 67.7671C145.303 67.8231 145.345 67.8977 145.363 67.9911C145.391 68.0844 145.391 68.1777 145.363 68.2711C145.335 68.3551 145.275 68.4297 145.181 68.4951C144.883 68.7377 144.556 68.9151 144.201 69.0271C143.847 69.1297 143.501 69.1811 143.165 69.1811ZM148.022 69.1251C147.835 69.1251 147.695 69.0737 147.602 68.9711C147.508 68.8591 147.462 68.7051 147.462 68.5091V62.7831C147.462 62.5871 147.508 62.4377 147.602 62.3351C147.695 62.2324 147.835 62.1811 148.022 62.1811C148.199 62.1811 148.339 62.2324 148.442 62.3351C148.544 62.4377 148.596 62.5871 148.596 62.7831V68.5091C148.596 68.7051 148.544 68.8591 148.442 68.9711C148.348 69.0737 148.208 69.1251 148.022 69.1251ZM148.022 60.6131C147.788 60.6131 147.606 60.5524 147.476 60.4311C147.345 60.3004 147.28 60.1277 147.28 59.9131C147.28 59.6891 147.345 59.5211 147.476 59.4091C147.606 59.2877 147.788 59.2271 148.022 59.2271C148.264 59.2271 148.446 59.2877 148.568 59.4091C148.698 59.5211 148.764 59.6891 148.764 59.9131C148.764 60.1277 148.698 60.3004 148.568 60.4311C148.446 60.5524 148.264 60.6131 148.022 60.6131ZM153.558 69.1811C153.091 69.1811 152.671 69.0924 152.298 68.9151C151.934 68.7284 151.644 68.4764 151.43 68.1591C151.215 67.8417 151.108 67.4871 151.108 67.0951C151.108 66.5911 151.234 66.1944 151.486 65.9051C151.747 65.6157 152.172 65.4104 152.76 65.2891C153.357 65.1677 154.169 65.1071 155.196 65.1071H155.826V65.8491H155.21C154.454 65.8491 153.856 65.8864 153.418 65.9611C152.988 66.0264 152.685 66.1431 152.508 66.3111C152.34 66.4791 152.256 66.7171 152.256 67.0251C152.256 67.4077 152.386 67.7204 152.648 67.9631C152.918 68.2057 153.282 68.3271 153.74 68.3271C154.113 68.3271 154.44 68.2384 154.72 68.0611C155.009 67.8837 155.233 67.6411 155.392 67.3331C155.56 67.0251 155.644 66.6704 155.644 66.2691V64.6731C155.644 64.0944 155.527 63.6791 155.294 63.4271C155.06 63.1657 154.678 63.0351 154.146 63.0351C153.819 63.0351 153.492 63.0771 153.166 63.1611C152.839 63.2451 152.494 63.3804 152.13 63.5671C151.999 63.6324 151.887 63.6557 151.794 63.6371C151.7 63.6091 151.626 63.5577 151.57 63.4831C151.514 63.4084 151.481 63.3244 151.472 63.2311C151.462 63.1284 151.481 63.0304 151.528 62.9371C151.584 62.8437 151.668 62.7691 151.78 62.7131C152.19 62.5077 152.596 62.3584 152.998 62.2651C153.399 62.1717 153.782 62.1251 154.146 62.1251C154.734 62.1251 155.219 62.2231 155.602 62.4191C155.984 62.6057 156.269 62.8951 156.456 63.2871C156.642 63.6697 156.736 64.1644 156.736 64.7711V68.5651C156.736 68.7517 156.689 68.8964 156.596 68.9991C156.512 69.1017 156.386 69.1531 156.218 69.1531C156.04 69.1531 155.905 69.1017 155.812 68.9991C155.718 68.8964 155.672 68.7517 155.672 68.5651V67.4731H155.798C155.723 67.8277 155.578 68.1311 155.364 68.3831C155.158 68.6351 154.902 68.8311 154.594 68.9711C154.286 69.1111 153.94 69.1811 153.558 69.1811ZM161.612 69.1811C160.94 69.1811 160.426 68.9757 160.072 68.5651C159.717 68.1544 159.54 67.5664 159.54 66.8011V59.6611C159.54 59.4744 159.586 59.3344 159.68 59.2411C159.773 59.1384 159.913 59.0871 160.1 59.0871C160.277 59.0871 160.417 59.1384 160.52 59.2411C160.622 59.3344 160.674 59.4744 160.674 59.6611V66.7171C160.674 67.2211 160.772 67.5991 160.968 67.8511C161.173 68.0937 161.472 68.2151 161.864 68.2151C161.948 68.2151 162.022 68.2104 162.088 68.2011C162.153 68.1917 162.218 68.1871 162.284 68.1871C162.386 68.1777 162.456 68.2011 162.494 68.2571C162.54 68.3131 162.564 68.4251 162.564 68.5931C162.564 68.7611 162.526 68.8871 162.452 68.9711C162.377 69.0551 162.256 69.1111 162.088 69.1391C162.013 69.1484 161.934 69.1577 161.85 69.1671C161.766 69.1764 161.686 69.1811 161.612 69.1811ZM170.833 69.1811C170.367 69.1811 169.947 69.0924 169.573 68.9151C169.209 68.7284 168.92 68.4764 168.705 68.1591C168.491 67.8417 168.383 67.4871 168.383 67.0951C168.383 66.5911 168.509 66.1944 168.761 65.9051C169.023 65.6157 169.447 65.4104 170.035 65.2891C170.633 65.1677 171.445 65.1071 172.471 65.1071H173.101V65.8491H172.485C171.729 65.8491 171.132 65.8864 170.693 65.9611C170.264 66.0264 169.961 66.1431 169.783 66.3111C169.615 66.4791 169.531 66.7171 169.531 67.0251C169.531 67.4077 169.662 67.7204 169.923 67.9631C170.194 68.2057 170.558 68.3271 171.015 68.3271C171.389 68.3271 171.715 68.2384 171.995 68.0611C172.285 67.8837 172.509 67.6411 172.667 67.3331C172.835 67.0251 172.919 66.6704 172.919 66.2691V64.6731C172.919 64.0944 172.803 63.6791 172.569 63.4271C172.336 63.1657 171.953 63.0351 171.421 63.0351C171.095 63.0351 170.768 63.0771 170.441 63.1611C170.115 63.2451 169.769 63.3804 169.405 63.5671C169.275 63.6324 169.163 63.6557 169.069 63.6371C168.976 63.6091 168.901 63.5577 168.845 63.4831C168.789 63.4084 168.757 63.3244 168.747 63.2311C168.738 63.1284 168.757 63.0304 168.803 62.9371C168.859 62.8437 168.943 62.7691 169.055 62.7131C169.466 62.5077 169.872 62.3584 170.273 62.2651C170.675 62.1717 171.057 62.1251 171.421 62.1251C172.009 62.1251 172.495 62.2231 172.877 62.4191C173.26 62.6057 173.545 62.8951 173.731 63.2871C173.918 63.6697 174.011 64.1644 174.011 64.7711V68.5651C174.011 68.7517 173.965 68.8964 173.871 68.9991C173.787 69.1017 173.661 69.1531 173.493 69.1531C173.316 69.1531 173.181 69.1017 173.087 68.9991C172.994 68.8964 172.947 68.7517 172.947 68.5651V67.4731H173.073C172.999 67.8277 172.854 68.1311 172.639 68.3831C172.434 68.6351 172.177 68.8311 171.869 68.9711C171.561 69.1111 171.216 69.1811 170.833 69.1811ZM177.375 69.1531C177.189 69.1531 177.049 69.1017 176.955 68.9991C176.862 68.8964 176.815 68.7517 176.815 68.5651V62.7271C176.815 62.5404 176.862 62.4004 176.955 62.3071C177.049 62.2044 177.184 62.1531 177.361 62.1531C177.539 62.1531 177.674 62.2044 177.767 62.3071C177.87 62.4004 177.921 62.5404 177.921 62.7271V63.9311L177.767 63.7631C177.963 63.2217 178.281 62.8157 178.719 62.5451C179.167 62.2651 179.681 62.1251 180.259 62.1251C180.801 62.1251 181.249 62.2231 181.603 62.4191C181.967 62.6151 182.238 62.9137 182.415 63.3151C182.593 63.7071 182.681 64.2064 182.681 64.8131V68.5651C182.681 68.7517 182.63 68.8964 182.527 68.9991C182.434 69.1017 182.299 69.1531 182.121 69.1531C181.935 69.1531 181.79 69.1017 181.687 68.9991C181.594 68.8964 181.547 68.7517 181.547 68.5651V64.8831C181.547 64.2484 181.421 63.7864 181.169 63.4971C180.927 63.1984 180.535 63.0491 179.993 63.0491C179.368 63.0491 178.869 63.2451 178.495 63.6371C178.131 64.0197 177.949 64.5331 177.949 65.1771V68.5651C177.949 68.9571 177.758 69.1531 177.375 69.1531ZM188.062 69.1811C187.456 69.1811 186.924 69.0364 186.466 68.7471C186.018 68.4577 185.668 68.0517 185.416 67.5291C185.174 66.9971 185.052 66.3717 185.052 65.6531C185.052 64.9251 185.174 64.2997 185.416 63.7771C185.668 63.2451 186.018 62.8391 186.466 62.5591C186.924 62.2697 187.456 62.1251 188.062 62.1251C188.678 62.1251 189.206 62.2791 189.644 62.5871C190.083 62.8951 190.377 63.3104 190.526 63.8331H190.372V59.6611C190.372 59.4744 190.419 59.3344 190.512 59.2411C190.615 59.1384 190.76 59.0871 190.946 59.0871C191.124 59.0871 191.259 59.1384 191.352 59.2411C191.455 59.3344 191.506 59.4744 191.506 59.6611V68.5651C191.506 68.7517 191.46 68.8964 191.366 68.9991C191.273 69.1017 191.133 69.1531 190.946 69.1531C190.769 69.1531 190.629 69.1017 190.526 68.9991C190.433 68.8964 190.386 68.7517 190.386 68.5651V67.2351L190.54 67.4311C190.391 67.9631 190.092 68.3877 189.644 68.7051C189.206 69.0224 188.678 69.1811 188.062 69.1811ZM188.3 68.2711C188.72 68.2711 189.089 68.1684 189.406 67.9631C189.724 67.7577 189.966 67.4591 190.134 67.0671C190.312 66.6751 190.4 66.2037 190.4 65.6531C190.4 64.8037 190.209 64.1551 189.826 63.7071C189.453 63.2591 188.944 63.0351 188.3 63.0351C187.871 63.0351 187.498 63.1377 187.18 63.3431C186.872 63.5391 186.63 63.8331 186.452 64.2251C186.284 64.6077 186.2 65.0837 186.2 65.6531C186.2 66.4931 186.392 67.1417 186.774 67.5991C187.157 68.0471 187.666 68.2711 188.3 68.2711ZM199.372 69.1531C199.185 69.1531 199.041 69.1017 198.938 68.9991C198.845 68.8871 198.798 68.7377 198.798 68.5511V59.7731C198.798 59.5771 198.849 59.4324 198.952 59.3391C199.055 59.2364 199.199 59.1851 199.386 59.1851H202.704C203.759 59.1851 204.571 59.4324 205.14 59.9271C205.709 60.4217 205.994 61.1264 205.994 62.0411C205.994 62.6197 205.863 63.1237 205.602 63.5531C205.35 63.9731 204.977 64.2951 204.482 64.5191C203.987 64.7337 203.395 64.8411 202.704 64.8411L202.844 64.6591H203.124C203.488 64.6591 203.805 64.7524 204.076 64.9391C204.347 65.1257 204.594 65.4244 204.818 65.8351L206.162 68.3411C206.237 68.4717 206.269 68.6024 206.26 68.7331C206.26 68.8544 206.218 68.9571 206.134 69.0411C206.05 69.1157 205.929 69.1531 205.77 69.1531C205.611 69.1531 205.481 69.1157 205.378 69.0411C205.275 68.9664 205.187 68.8591 205.112 68.7191L203.586 65.8911C203.371 65.4897 203.124 65.2237 202.844 65.0931C202.564 64.9531 202.195 64.8831 201.738 64.8831H199.946V68.5511C199.946 68.7377 199.899 68.8871 199.806 68.9991C199.713 69.1017 199.568 69.1531 199.372 69.1531ZM199.946 63.9731H202.536C203.301 63.9731 203.88 63.8144 204.272 63.4971C204.664 63.1704 204.86 62.6851 204.86 62.0411C204.86 61.4157 204.664 60.9444 204.272 60.6271C203.88 60.3004 203.301 60.1371 202.536 60.1371H199.946V63.9731ZM211.625 69.1811C210.906 69.1811 210.285 69.0411 209.763 68.7611C209.249 68.4717 208.848 68.0657 208.559 67.5431C208.279 67.0204 208.139 66.3951 208.139 65.6671C208.139 64.9577 208.279 64.3417 208.559 63.8191C208.839 63.2871 209.221 62.8717 209.707 62.5731C210.201 62.2744 210.771 62.1251 211.415 62.1251C211.872 62.1251 212.283 62.2044 212.647 62.3631C213.011 62.5124 213.319 62.7317 213.571 63.0211C213.832 63.3104 214.028 63.6604 214.159 64.0711C214.299 64.4817 214.369 64.9437 214.369 65.4571C214.369 65.6064 214.327 65.7184 214.243 65.7931C214.159 65.8584 214.037 65.8911 213.879 65.8911H209.007V65.1491H213.613L213.389 65.3311C213.389 64.8271 213.314 64.4024 213.165 64.0571C213.015 63.7024 212.796 63.4317 212.507 63.2451C212.227 63.0584 211.872 62.9651 211.443 62.9651C210.967 62.9651 210.561 63.0771 210.225 63.3011C209.898 63.5157 209.651 63.8191 209.483 64.2111C209.315 64.5937 209.231 65.0417 209.231 65.5551V65.6391C209.231 66.4977 209.436 67.1511 209.847 67.5991C210.267 68.0471 210.859 68.2711 211.625 68.2711C211.942 68.2711 212.255 68.2291 212.563 68.1451C212.88 68.0611 213.188 67.9211 213.487 67.7251C213.617 67.6411 213.734 67.6037 213.837 67.6131C213.949 67.6131 214.037 67.6457 214.103 67.7111C214.168 67.7671 214.21 67.8417 214.229 67.9351C214.257 68.0191 214.247 68.1124 214.201 68.2151C214.163 68.3177 214.084 68.4064 213.963 68.4811C213.655 68.7051 213.291 68.8777 212.871 68.9991C212.451 69.1204 212.035 69.1811 211.625 69.1811ZM219.006 69.1811C218.586 69.1811 218.161 69.1297 217.732 69.0271C217.312 68.9244 216.92 68.7471 216.556 68.4951C216.463 68.4297 216.397 68.3551 216.36 68.2711C216.323 68.1777 216.309 68.0891 216.318 68.0051C216.337 67.9117 216.374 67.8324 216.43 67.7671C216.495 67.7017 216.57 67.6644 216.654 67.6551C216.747 67.6364 216.85 67.6551 216.962 67.7111C217.326 67.9351 217.676 68.0937 218.012 68.1871C218.357 68.2711 218.698 68.3131 219.034 68.3131C219.566 68.3131 219.967 68.2151 220.238 68.0191C220.509 67.8231 220.644 67.5571 220.644 67.2211C220.644 66.9597 220.555 66.7544 220.378 66.6051C220.201 66.4464 219.921 66.3251 219.538 66.2411L218.264 65.9611C217.676 65.8397 217.237 65.6297 216.948 65.3311C216.668 65.0324 216.528 64.6451 216.528 64.1691C216.528 63.7491 216.635 63.3897 216.85 63.0911C217.074 62.7831 217.387 62.5451 217.788 62.3771C218.189 62.2091 218.656 62.1251 219.188 62.1251C219.599 62.1251 219.986 62.1811 220.35 62.2931C220.723 62.3957 221.059 62.5637 221.358 62.7971C221.451 62.8624 221.512 62.9417 221.54 63.0351C221.577 63.1191 221.582 63.2077 221.554 63.3011C221.535 63.3851 221.493 63.4597 221.428 63.5251C221.363 63.5811 221.283 63.6137 221.19 63.6231C221.097 63.6324 220.999 63.6044 220.896 63.5391C220.616 63.3524 220.331 63.2171 220.042 63.1331C219.753 63.0397 219.468 62.9931 219.188 62.9931C218.665 62.9931 218.269 63.0957 217.998 63.3011C217.727 63.5064 217.592 63.7771 217.592 64.1131C217.592 64.3744 217.676 64.5891 217.844 64.7571C218.012 64.9251 218.273 65.0464 218.628 65.1211L219.902 65.3871C220.509 65.5177 220.961 65.7277 221.26 66.0171C221.568 66.2971 221.722 66.6797 221.722 67.1651C221.722 67.7811 221.475 68.2711 220.98 68.6351C220.485 68.9991 219.827 69.1811 219.006 69.1811ZM224.71 69.1251C224.523 69.1251 224.383 69.0737 224.29 68.9711C224.197 68.8591 224.15 68.7051 224.15 68.5091V62.7831C224.15 62.5871 224.197 62.4377 224.29 62.3351C224.383 62.2324 224.523 62.1811 224.71 62.1811C224.887 62.1811 225.027 62.2324 225.13 62.3351C225.233 62.4377 225.284 62.5871 225.284 62.7831V68.5091C225.284 68.7051 225.233 68.8591 225.13 68.9711C225.037 69.0737 224.897 69.1251 224.71 69.1251ZM224.71 60.6131C224.477 60.6131 224.295 60.5524 224.164 60.4311C224.033 60.3004 223.968 60.1277 223.968 59.9131C223.968 59.6891 224.033 59.5211 224.164 59.4091C224.295 59.2877 224.477 59.2271 224.71 59.2271C224.953 59.2271 225.135 59.2877 225.256 59.4091C225.387 59.5211 225.452 59.6891 225.452 59.9131C225.452 60.1277 225.387 60.3004 225.256 60.4311C225.135 60.5524 224.953 60.6131 224.71 60.6131ZM230.694 69.1811C230.087 69.1811 229.555 69.0364 229.098 68.7471C228.65 68.4577 228.3 68.0517 228.048 67.5291C227.805 66.9971 227.684 66.3717 227.684 65.6531C227.684 64.9251 227.805 64.2997 228.048 63.7771C228.3 63.2451 228.65 62.8391 229.098 62.5591C229.555 62.2697 230.087 62.1251 230.694 62.1251C231.31 62.1251 231.837 62.2791 232.276 62.5871C232.715 62.8951 233.009 63.3104 233.158 63.8331H233.004V59.6611C233.004 59.4744 233.051 59.3344 233.144 59.2411C233.247 59.1384 233.391 59.0871 233.578 59.0871C233.755 59.0871 233.891 59.1384 233.984 59.2411C234.087 59.3344 234.138 59.4744 234.138 59.6611V68.5651C234.138 68.7517 234.091 68.8964 233.998 68.9991C233.905 69.1017 233.765 69.1531 233.578 69.1531C233.401 69.1531 233.261 69.1017 233.158 68.9991C233.065 68.8964 233.018 68.7517 233.018 68.5651V67.2351L233.172 67.4311C233.023 67.9631 232.724 68.3877 232.276 68.7051C231.837 69.0224 231.31 69.1811 230.694 69.1811ZM230.932 68.2711C231.352 68.2711 231.721 68.1684 232.038 67.9631C232.355 67.7577 232.598 67.4591 232.766 67.0671C232.943 66.6751 233.032 66.2037 233.032 65.6531C233.032 64.8037 232.841 64.1551 232.458 63.7071C232.085 63.2591 231.576 63.0351 230.932 63.0351C230.503 63.0351 230.129 63.1377 229.812 63.3431C229.504 63.5391 229.261 63.8331 229.084 64.2251C228.916 64.6077 228.832 65.0837 228.832 65.6531C228.832 66.4931 229.023 67.1417 229.406 67.5991C229.789 68.0471 230.297 68.2711 230.932 68.2711ZM240.032 69.1811C239.313 69.1811 238.693 69.0411 238.17 68.7611C237.657 68.4717 237.255 68.0657 236.966 67.5431C236.686 67.0204 236.546 66.3951 236.546 65.6671C236.546 64.9577 236.686 64.3417 236.966 63.8191C237.246 63.2871 237.629 62.8717 238.114 62.5731C238.609 62.2744 239.178 62.1251 239.822 62.1251C240.279 62.1251 240.69 62.2044 241.054 62.3631C241.418 62.5124 241.726 62.7317 241.978 63.0211C242.239 63.3104 242.435 63.6604 242.566 64.0711C242.706 64.4817 242.776 64.9437 242.776 65.4571C242.776 65.6064 242.734 65.7184 242.65 65.7931C242.566 65.8584 242.445 65.8911 242.286 65.8911H237.414V65.1491H242.02L241.796 65.3311C241.796 64.8271 241.721 64.4024 241.572 64.0571C241.423 63.7024 241.203 63.4317 240.914 63.2451C240.634 63.0584 240.279 62.9651 239.85 62.9651C239.374 62.9651 238.968 63.0771 238.632 63.3011C238.305 63.5157 238.058 63.8191 237.89 64.2111C237.722 64.5937 237.638 65.0417 237.638 65.5551V65.6391C237.638 66.4977 237.843 67.1511 238.254 67.5991C238.674 68.0471 239.267 68.2711 240.032 68.2711C240.349 68.2711 240.662 68.2291 240.97 68.1451C241.287 68.0611 241.595 67.9211 241.894 67.7251C242.025 67.6411 242.141 67.6037 242.244 67.6131C242.356 67.6131 242.445 67.6457 242.51 67.7111C242.575 67.7671 242.617 67.8417 242.636 67.9351C242.664 68.0191 242.655 68.1124 242.608 68.2151C242.571 68.3177 242.491 68.4064 242.37 68.4811C242.062 68.7051 241.698 68.8777 241.278 68.9991C240.858 69.1204 240.443 69.1811 240.032 69.1811ZM245.677 69.1531C245.491 69.1531 245.351 69.1017 245.257 68.9991C245.164 68.8964 245.117 68.7517 245.117 68.5651V62.7271C245.117 62.5404 245.164 62.4004 245.257 62.3071C245.351 62.2044 245.486 62.1531 245.663 62.1531C245.841 62.1531 245.976 62.2044 246.069 62.3071C246.172 62.4004 246.223 62.5404 246.223 62.7271V63.9311L246.069 63.7631C246.265 63.2217 246.583 62.8157 247.021 62.5451C247.469 62.2651 247.983 62.1251 248.561 62.1251C249.103 62.1251 249.551 62.2231 249.905 62.4191C250.269 62.6151 250.54 62.9137 250.717 63.3151C250.895 63.7071 250.983 64.2064 250.983 64.8131V68.5651C250.983 68.7517 250.932 68.8964 250.829 68.9991C250.736 69.1017 250.601 69.1531 250.423 69.1531C250.237 69.1531 250.092 69.1017 249.989 68.9991C249.896 68.8964 249.849 68.7517 249.849 68.5651V64.8831C249.849 64.2484 249.723 63.7864 249.471 63.4971C249.229 63.1984 248.837 63.0491 248.295 63.0491C247.67 63.0491 247.171 63.2451 246.797 63.6371C246.433 64.0197 246.251 64.5331 246.251 65.1771V68.5651C246.251 68.9571 246.06 69.1531 245.677 69.1531ZM256.504 69.1811C255.972 69.1811 255.524 69.0877 255.16 68.9011C254.806 68.7051 254.54 68.4251 254.362 68.0611C254.185 67.6877 254.096 67.2351 254.096 66.7031V63.1331H253.158C253 63.1331 252.878 63.0957 252.794 63.0211C252.71 62.9371 252.668 62.8251 252.668 62.6851C252.668 62.5451 252.71 62.4377 252.794 62.3631C252.878 62.2884 253 62.2511 253.158 62.2511H254.096V60.6411C254.096 60.4544 254.148 60.3144 254.25 60.2211C254.353 60.1184 254.493 60.0671 254.67 60.0671C254.848 60.0671 254.983 60.1184 255.076 60.2211C255.179 60.3144 255.23 60.4544 255.23 60.6411V62.2511H256.994C257.153 62.2511 257.274 62.2884 257.358 62.3631C257.442 62.4377 257.484 62.5451 257.484 62.6851C257.484 62.8251 257.442 62.9371 257.358 63.0211C257.274 63.0957 257.153 63.1331 256.994 63.1331H255.23V66.5911C255.23 67.1231 255.342 67.5291 255.566 67.8091C255.79 68.0797 256.154 68.2151 256.658 68.2151C256.836 68.2151 256.985 68.1964 257.106 68.1591C257.237 68.1217 257.344 68.1031 257.428 68.1031C257.512 68.0937 257.582 68.1217 257.638 68.1871C257.694 68.2524 257.722 68.3644 257.722 68.5231C257.722 68.6351 257.699 68.7377 257.652 68.8311C257.615 68.9244 257.545 68.9897 257.442 69.0271C257.33 69.0644 257.181 69.0971 256.994 69.1251C256.817 69.1624 256.654 69.1811 256.504 69.1811ZM260.011 69.1251C259.824 69.1251 259.684 69.0737 259.591 68.9711C259.498 68.8591 259.451 68.7051 259.451 68.5091V62.7831C259.451 62.5871 259.498 62.4377 259.591 62.3351C259.684 62.2324 259.824 62.1811 260.011 62.1811C260.188 62.1811 260.328 62.2324 260.431 62.3351C260.534 62.4377 260.585 62.5871 260.585 62.7831V68.5091C260.585 68.7051 260.534 68.8591 260.431 68.9711C260.338 69.0737 260.198 69.1251 260.011 69.1251ZM260.011 60.6131C259.778 60.6131 259.596 60.5524 259.465 60.4311C259.334 60.3004 259.269 60.1277 259.269 59.9131C259.269 59.6891 259.334 59.5211 259.465 59.4091C259.596 59.2877 259.778 59.2271 260.011 59.2271C260.254 59.2271 260.436 59.2877 260.557 59.4091C260.688 59.5211 260.753 59.6891 260.753 59.9131C260.753 60.1277 260.688 60.3004 260.557 60.4311C260.436 60.5524 260.254 60.6131 260.011 60.6131ZM265.547 69.1811C265.08 69.1811 264.66 69.0924 264.287 68.9151C263.923 68.7284 263.633 68.4764 263.419 68.1591C263.204 67.8417 263.097 67.4871 263.097 67.0951C263.097 66.5911 263.223 66.1944 263.475 65.9051C263.736 65.6157 264.161 65.4104 264.749 65.2891C265.346 65.1677 266.158 65.1071 267.185 65.1071H267.815V65.8491H267.199C266.443 65.8491 265.845 65.8864 265.407 65.9611C264.977 66.0264 264.674 66.1431 264.497 66.3111C264.329 66.4791 264.245 66.7171 264.245 67.0251C264.245 67.4077 264.375 67.7204 264.637 67.9631C264.907 68.2057 265.271 68.3271 265.729 68.3271C266.102 68.3271 266.429 68.2384 266.709 68.0611C266.998 67.8837 267.222 67.6411 267.381 67.3331C267.549 67.0251 267.633 66.6704 267.633 66.2691V64.6731C267.633 64.0944 267.516 63.6791 267.283 63.4271C267.049 63.1657 266.667 63.0351 266.135 63.0351C265.808 63.0351 265.481 63.0771 265.155 63.1611C264.828 63.2451 264.483 63.3804 264.119 63.5671C263.988 63.6324 263.876 63.6557 263.783 63.6371C263.689 63.6091 263.615 63.5577 263.559 63.4831C263.503 63.4084 263.47 63.3244 263.461 63.2311C263.451 63.1284 263.47 63.0304 263.517 62.9371C263.573 62.8437 263.657 62.7691 263.769 62.7131C264.179 62.5077 264.585 62.3584 264.987 62.2651C265.388 62.1717 265.771 62.1251 266.135 62.1251C266.723 62.1251 267.208 62.2231 267.591 62.4191C267.973 62.6057 268.258 62.8951 268.445 63.2871C268.631 63.6697 268.725 64.1644 268.725 64.7711V68.5651C268.725 68.7517 268.678 68.8964 268.585 68.9991C268.501 69.1017 268.375 69.1531 268.207 69.1531C268.029 69.1531 267.894 69.1017 267.801 68.9991C267.707 68.8964 267.661 68.7517 267.661 68.5651V67.4731H267.787C267.712 67.8277 267.567 68.1311 267.353 68.3831C267.147 68.6351 266.891 68.8311 266.583 68.9711C266.275 69.1111 265.929 69.1811 265.547 69.1811ZM273.601 69.1811C272.929 69.1811 272.415 68.9757 272.061 68.5651C271.706 68.1544 271.529 67.5664 271.529 66.8011V59.6611C271.529 59.4744 271.575 59.3344 271.669 59.2411C271.762 59.1384 271.902 59.0871 272.089 59.0871C272.266 59.0871 272.406 59.1384 272.509 59.2411C272.611 59.3344 272.663 59.4744 272.663 59.6611V66.7171C272.663 67.2211 272.761 67.5991 272.957 67.8511C273.162 68.0937 273.461 68.2151 273.853 68.2151C273.937 68.2151 274.011 68.2104 274.077 68.2011C274.142 68.1917 274.207 68.1871 274.273 68.1871C274.375 68.1777 274.445 68.2011 274.483 68.2571C274.529 68.3131 274.553 68.4251 274.553 68.5931C274.553 68.7611 274.515 68.8871 274.441 68.9711C274.366 69.0551 274.245 69.1111 274.077 69.1391C274.002 69.1484 273.923 69.1577 273.839 69.1671C273.755 69.1764 273.675 69.1811 273.601 69.1811Z" fill="#FFFFFF"/>
    <path d="M272.441 52.0551H267.635C267.117 52.0551 266.634 51.8077 266.347 51.3954L249.264 26.8942C249.018 26.5414 249.282 26.0696 249.725 26.0696H254.478C254.968 26.0696 255.425 26.3033 255.697 26.6936L272.858 51.3079C273.081 51.6275 272.842 52.0551 272.441 52.0551ZM249.55 51.8137C249.028 51.8137 248.75 51.2237 249.097 50.8488L271.825 26.2506C271.94 26.1265 272.105 26.0551 272.279 26.0551C272.801 26.0551 273.079 26.6451 272.732 27.02L250.005 51.6182C249.89 51.7423 249.724 51.8137 249.55 51.8137Z" fill="#FFFFFF"/>
    <path d="M57.1383 53.8391C57.6542 53.9181 58.1806 53.8948 58.6875 53.7705C59.1947 53.6461 59.6723 53.423 60.0932 53.114C60.5141 52.8051 60.8701 52.4162 61.1407 51.9697C61.4113 51.5231 61.5914 51.0276 61.6705 50.5115C61.75 49.985 61.7246 49.4479 61.5957 48.9312C61.4669 48.4145 61.2371 47.9284 60.9197 47.5009L47.7712 32.1706C47.6071 31.9499 47.494 31.6956 47.4399 31.4259C47.4438 31.3884 47.4495 31.3512 47.457 31.3143C47.8466 30.5806 48.049 29.7621 48.0461 28.9314C48.0433 28.1007 47.8353 27.2836 47.4406 26.5526C46.383 24.8751 44.7397 23.6503 42.8299 23.1161C42.6366 23.0591 42.4289 23.0774 42.2486 23.1675L42.0479 23.2834L41.9505 23.4113C41.8539 23.5399 41.7968 23.6939 41.7861 23.8545C41.7754 24.015 41.8116 24.1752 41.8903 24.3155L44.1716 28.4006L42.7554 29.7984L40.698 30.2628L38.4109 26.1651C38.3347 26.0296 38.2222 25.918 38.086 25.8429C37.9499 25.7678 37.7955 25.7322 37.6402 25.7399L37.416 25.7641L37.2801 25.838C37.0923 25.9429 36.9533 26.1174 36.8932 26.3239C36.3248 28.2077 36.4935 30.2371 37.3654 32.0011C37.9526 32.9765 38.8332 33.7413 39.8813 34.1861C40.9294 34.6309 42.0913 34.733 43.2008 34.4777C43.4348 34.69 43.6573 34.9146 43.8675 35.1504L54.5282 52.2598C54.8372 52.6828 55.2271 53.0401 55.6752 53.3113C56.1232 53.5823 56.6205 53.7617 57.1383 53.8391ZM55.5901 51.5423L44.8934 34.3884C44.5471 33.9676 44.1536 33.588 43.7207 33.257L43.4812 33.092L43.2 33.1658C42.3268 33.4259 41.3923 33.3916 40.5404 33.0684C39.6885 32.7451 38.9666 32.1507 38.4857 31.3768C37.9473 30.2921 37.7409 29.0727 37.8922 27.8712L39.6569 31.0315C39.7702 31.2304 39.944 31.3881 40.153 31.4816C40.362 31.5751 40.5953 31.5996 40.8191 31.5515L43.1441 31.0255C43.2223 31.0062 43.2978 30.9772 43.3688 30.9392L45.1965 29.1916C45.3622 29.03 45.4695 28.8179 45.5017 28.5887C45.5338 28.3595 45.4891 28.1261 45.3743 27.9251L43.63 24.8017C44.7371 25.3184 45.6712 26.1441 46.3199 27.1795C46.6208 27.7356 46.7752 28.3592 46.7686 28.9915C46.7619 29.6238 46.5944 30.244 46.2818 30.7936L46.2248 30.9458C46.1974 31.0625 46.1768 31.1806 46.163 31.2997C46.1773 31.894 46.3815 32.4681 46.7458 32.9378L59.9156 48.2986C60.2315 48.7294 60.4128 49.244 60.4365 49.7776C60.4602 50.3113 60.3253 50.84 60.0488 51.297C59.7724 51.7541 59.3667 52.119 58.8831 52.3458C58.3994 52.5725 57.8594 52.6509 57.3313 52.571C56.6385 52.4696 56.0132 52.1002 55.5901 51.5423ZM59.1402 50.1225L59.295 49.1082C59.3512 48.7384 59.2583 48.3614 59.0367 48.0599C58.8151 47.7585 58.483 47.5573 58.1133 47.5005L57.099 47.3456C56.7291 47.2895 56.3521 47.3824 56.0507 47.604C55.7493 47.8255 55.5481 48.1576 55.4913 48.5274L55.3364 49.5417C55.2803 49.9116 55.3732 50.2886 55.5947 50.59C55.8163 50.8914 56.1484 51.0926 56.5181 51.1494L57.5325 51.3043C57.9023 51.3604 58.2793 51.2675 58.5807 51.046C58.8822 50.8244 59.0833 50.4923 59.1402 50.1225ZM56.7117 49.8815C56.6781 49.8764 56.6479 49.8581 56.6278 49.8307C56.6076 49.8033 56.5992 49.769 56.6043 49.7353L56.7592 48.721C56.7643 48.6874 56.7826 48.6572 56.81 48.637C56.8374 48.6169 56.8717 48.6084 56.9054 48.6136L57.9197 48.7685C57.9533 48.7736 57.9835 48.7919 58.0037 48.8193C58.0238 48.8467 58.0323 48.881 58.0271 48.9146L57.8722 49.9289C57.8671 49.9626 57.8488 49.9928 57.8214 50.0129C57.794 50.0331 57.7597 50.0415 57.7261 50.0364L56.7117 49.8815Z" fill="#FFFFFF"/>
    <path d="M57.1383 53.8391C57.6542 53.9181 58.1806 53.8948 58.6875 53.7705C59.1947 53.6461 59.6723 53.423 60.0932 53.114C60.5141 52.8051 60.8701 52.4162 61.1407 51.9697C61.4113 51.5231 61.5914 51.0276 61.6705 50.5115C61.75 49.985 61.7246 49.4479 61.5957 48.9312C61.4669 48.4145 61.2371 47.9284 60.9197 47.5009L47.7712 32.1706C47.6071 31.9499 47.494 31.6956 47.4399 31.4259C47.4438 31.3884 47.4495 31.3512 47.457 31.3143C47.8466 30.5806 48.049 29.7621 48.0461 28.9314C48.0433 28.1007 47.8353 27.2836 47.4406 26.5526C46.383 24.8751 44.7397 23.6503 42.8299 23.1161C42.6366 23.0591 42.4289 23.0774 42.2486 23.1675L42.0479 23.2834L41.9505 23.4113C41.8539 23.5399 41.7968 23.6939 41.7861 23.8545C41.7754 24.015 41.8116 24.1752 41.8903 24.3155L44.1716 28.4006L42.7554 29.7984L40.698 30.2628L38.4109 26.1651C38.3347 26.0296 38.2222 25.918 38.086 25.8429C37.9499 25.7678 37.7955 25.7322 37.6402 25.7399L37.416 25.7641L37.2801 25.838C37.0923 25.9429 36.9533 26.1174 36.8932 26.3239C36.3248 28.2077 36.4935 30.2371 37.3654 32.0011C37.9526 32.9765 38.8332 33.7413 39.8813 34.1861C40.9294 34.6309 42.0913 34.733 43.2008 34.4777C43.4348 34.69 43.6573 34.9146 43.8675 35.1504L54.5282 52.2598C54.8372 52.6828 55.2271 53.0401 55.6752 53.3113C56.1232 53.5823 56.6205 53.7617 57.1383 53.8391ZM55.5901 51.5423L44.8934 34.3884C44.5471 33.9676 44.1536 33.588 43.7207 33.257L43.4812 33.092L43.2 33.1658C42.3268 33.4259 41.3923 33.3916 40.5404 33.0684C39.6885 32.7451 38.9666 32.1507 38.4857 31.3768C37.9473 30.2921 37.7409 29.0727 37.8922 27.8712L39.6569 31.0315C39.7702 31.2304 39.944 31.3881 40.153 31.4816C40.362 31.5751 40.5953 31.5996 40.8191 31.5515L43.1441 31.0255C43.2223 31.0062 43.2978 30.9772 43.3688 30.9392L45.1965 29.1916C45.3622 29.03 45.4695 28.8179 45.5017 28.5887C45.5338 28.3595 45.4891 28.1261 45.3743 27.9251L43.63 24.8017C44.7371 25.3184 45.6712 26.1441 46.3199 27.1795C46.6208 27.7356 46.7752 28.3592 46.7686 28.9915C46.7619 29.6238 46.5944 30.244 46.2818 30.7936L46.2248 30.9458C46.1974 31.0625 46.1768 31.1806 46.163 31.2997C46.1773 31.894 46.3815 32.4681 46.7458 32.9378L59.9156 48.2986C60.2315 48.7294 60.4128 49.244 60.4365 49.7776C60.4602 50.3113 60.3253 50.84 60.0488 51.297C59.7724 51.7541 59.3667 52.119 58.8831 52.3458C58.3994 52.5725 57.8594 52.6509 57.3313 52.571C56.6385 52.4696 56.0132 52.1002 55.5901 51.5423ZM59.1402 50.1225L59.295 49.1082C59.3512 48.7384 59.2583 48.3614 59.0367 48.0599C58.8151 47.7585 58.483 47.5573 58.1133 47.5005L57.099 47.3456C56.7291 47.2895 56.3521 47.3824 56.0507 47.604C55.7493 47.8255 55.5481 48.1576 55.4913 48.5274L55.3364 49.5417C55.2803 49.9116 55.3732 50.2886 55.5947 50.59C55.8163 50.8914 56.1484 51.0926 56.5181 51.1494L57.5325 51.3043C57.9023 51.3604 58.2793 51.2675 58.5807 51.046C58.8822 50.8244 59.0833 50.4923 59.1402 50.1225ZM56.7117 49.8815C56.6781 49.8764 56.6479 49.8581 56.6278 49.8307C56.6076 49.8033 56.5992 49.769 56.6043 49.7353L56.7592 48.721C56.7643 48.6874 56.7826 48.6572 56.81 48.637C56.8374 48.6169 56.8717 48.6084 56.9054 48.6136L57.9197 48.7685C57.9533 48.7736 57.9835 48.7919 58.0037 48.8193C58.0238 48.8467 58.0323 48.881 58.0271 48.9146L57.8722 49.9289C57.8671 49.9626 57.8488 49.9928 57.8214 50.0129C57.794 50.0331 57.7597 50.0415 57.7261 50.0364L56.7117 49.8815Z" stroke="#FFFFFF"/>
    <path d="M57.3196 53.9799C57.8556 54.062 58.4025 54.0378 58.9291 53.9086C59.456 53.7794 59.9522 53.5477 60.3895 53.2267C60.8268 52.9056 61.1966 52.5016 61.4778 52.0377C61.7589 51.5738 61.946 51.0591 62.0282 50.5229C62.1108 49.9758 62.0844 49.4179 61.9505 48.8811C61.8166 48.3443 61.5779 47.8393 61.2481 47.3951L47.588 31.4682C47.4175 31.2389 47.3 30.9747 47.2438 30.6945C47.2478 30.6556 47.2537 30.6169 47.2615 30.5786C47.6663 29.8164 47.8766 28.966 47.8736 28.103C47.8707 27.24 47.6545 26.391 47.2445 25.6316C46.1457 23.8888 44.4386 22.6164 42.4544 22.0614C42.2536 22.0021 42.0378 22.0212 41.8505 22.1147L41.642 22.2352L41.5408 22.368C41.4405 22.5017 41.3811 22.6617 41.37 22.8285C41.3589 22.9952 41.3965 23.1617 41.4783 23.3075L43.8483 27.5515L42.377 29.0037L40.2396 29.4861L37.8634 25.229C37.7842 25.0882 37.6674 24.9723 37.5259 24.8943C37.3845 24.8163 37.2241 24.7792 37.0628 24.7873L36.8298 24.8124L36.6887 24.8892C36.4936 24.9981 36.3492 25.1795 36.2867 25.394C35.6961 27.3511 35.8715 29.4595 36.7772 31.2921C37.3873 32.3055 38.3022 33.1001 39.3911 33.5622C40.4799 34.0243 41.687 34.1303 42.8398 33.8651C43.0828 34.0857 43.314 34.3189 43.5324 34.564L54.608 52.3392C54.9289 52.7786 55.334 53.1499 55.7996 53.4315C56.265 53.7131 56.7816 53.8995 57.3196 53.9799ZM55.7112 51.5937L44.5982 33.7723C44.2385 33.3351 43.8297 32.9407 43.3799 32.5969L43.131 32.4255L42.839 32.5022C41.9317 32.7723 40.9608 32.7368 40.0758 32.4009C39.1908 32.0651 38.4407 31.4476 37.9411 30.6436C37.3818 29.5166 37.1673 28.2498 37.3245 27.0015L39.1579 30.2848C39.2756 30.4914 39.4562 30.6552 39.6733 30.7524C39.8904 30.8495 40.1328 30.875 40.3654 30.825L42.7808 30.2786C42.8621 30.2585 42.9405 30.2284 43.0143 30.1889L44.9131 28.3733C45.0852 28.2054 45.1967 27.9851 45.2301 27.747C45.2636 27.5088 45.217 27.2664 45.0978 27.0576L43.2856 23.8126C44.4358 24.3494 45.4063 25.2072 46.0802 26.2828C46.3928 26.8606 46.5533 27.5085 46.5464 28.1654C46.5394 28.8223 46.3654 29.4666 46.0406 30.0376L45.9814 30.1958C45.953 30.317 45.9315 30.4397 45.9172 30.5634C45.932 31.1808 46.1442 31.7773 46.5227 32.2653L60.205 48.2239C60.5332 48.6713 60.7215 49.206 60.7461 49.7604C60.7708 50.3148 60.6306 50.8641 60.3434 51.3389C60.0562 51.8138 59.6347 52.1929 59.1323 52.4285C58.6298 52.664 58.0688 52.7455 57.5201 52.6625C56.8003 52.5572 56.1507 52.1734 55.7112 51.5937ZM59.3994 50.1187L59.5603 49.0649C59.6186 48.6807 59.5221 48.289 59.2919 47.9759C59.0617 47.6627 58.7167 47.4537 58.3325 47.3947L57.2787 47.2338C56.8945 47.1755 56.5028 47.272 56.1897 47.5022C55.8765 47.7324 55.6675 48.0774 55.6085 48.4615L55.4476 49.5153C55.3893 49.8996 55.4858 50.2912 55.716 50.6044C55.9462 50.9175 56.2912 51.1266 56.6753 51.1856L57.7291 51.3465C58.1134 51.4048 58.505 51.3083 58.8182 51.0781C59.1313 50.8479 59.3403 50.5029 59.3994 50.1187ZM56.8765 49.8683C56.8415 49.863 56.8101 49.844 56.7892 49.8155C56.7683 49.787 56.7595 49.7514 56.7648 49.7165L56.9258 48.6627C56.9311 48.6277 56.9501 48.5963 56.9786 48.5754C57.007 48.5545 57.0427 48.5457 57.0776 48.551L58.1314 48.712C58.1663 48.7173 58.1977 48.7363 58.2187 48.7648C58.2396 48.7932 58.2483 48.8289 58.243 48.8638L58.0821 49.9176C58.0768 49.9525 58.0578 49.9839 58.0293 50.0049C58.0008 50.0258 57.9652 50.0346 57.9303 50.0292L56.8765 49.8683Z" fill="#FFFFFF"/>
    <path d="M57.3196 53.9799C57.8556 54.062 58.4025 54.0378 58.9291 53.9086C59.456 53.7794 59.9522 53.5477 60.3895 53.2267C60.8268 52.9056 61.1966 52.5016 61.4778 52.0377C61.7589 51.5738 61.946 51.0591 62.0282 50.5229C62.1108 49.9758 62.0844 49.4179 61.9505 48.8811C61.8166 48.3443 61.5779 47.8393 61.2481 47.3951L47.588 31.4682C47.4175 31.2389 47.3 30.9747 47.2438 30.6945C47.2478 30.6556 47.2537 30.6169 47.2615 30.5786C47.6663 29.8164 47.8766 28.966 47.8736 28.103C47.8707 27.24 47.6545 26.391 47.2445 25.6316C46.1457 23.8888 44.4386 22.6164 42.4544 22.0614C42.2536 22.0021 42.0378 22.0212 41.8505 22.1147L41.642 22.2352L41.5408 22.368C41.4405 22.5017 41.3811 22.6617 41.37 22.8285C41.3589 22.9952 41.3965 23.1617 41.4783 23.3075L43.8483 27.5515L42.377 29.0037L40.2396 29.4861L37.8634 25.229C37.7842 25.0882 37.6674 24.9723 37.5259 24.8943C37.3845 24.8163 37.2241 24.7792 37.0628 24.7873L36.8298 24.8124L36.6887 24.8892C36.4936 24.9981 36.3492 25.1795 36.2867 25.394C35.6961 27.3511 35.8715 29.4595 36.7772 31.2921C37.3873 32.3055 38.3022 33.1001 39.3911 33.5622C40.4799 34.0243 41.687 34.1303 42.8398 33.8651C43.0828 34.0857 43.314 34.3189 43.5324 34.564L54.608 52.3392C54.9289 52.7786 55.334 53.1499 55.7996 53.4315C56.265 53.7131 56.7816 53.8995 57.3196 53.9799ZM55.7112 51.5937L44.5982 33.7723C44.2385 33.3351 43.8297 32.9407 43.3799 32.5969L43.131 32.4255L42.839 32.5022C41.9317 32.7723 40.9608 32.7368 40.0758 32.4009C39.1908 32.0651 38.4407 31.4476 37.9411 30.6436C37.3818 29.5166 37.1673 28.2498 37.3245 27.0015L39.1579 30.2848C39.2756 30.4914 39.4562 30.6552 39.6733 30.7524C39.8904 30.8495 40.1328 30.875 40.3654 30.825L42.7808 30.2786C42.8621 30.2585 42.9405 30.2284 43.0143 30.1889L44.9131 28.3733C45.0852 28.2054 45.1967 27.9851 45.2301 27.747C45.2636 27.5088 45.217 27.2664 45.0978 27.0576L43.2856 23.8126C44.4358 24.3494 45.4063 25.2072 46.0802 26.2828C46.3928 26.8606 46.5533 27.5085 46.5464 28.1654C46.5394 28.8223 46.3654 29.4666 46.0406 30.0376L45.9814 30.1958C45.953 30.317 45.9315 30.4397 45.9172 30.5634C45.932 31.1808 46.1442 31.7773 46.5227 32.2653L60.205 48.2239C60.5332 48.6713 60.7215 49.206 60.7461 49.7604C60.7708 50.3148 60.6306 50.8641 60.3434 51.3389C60.0562 51.8138 59.6347 52.1929 59.1323 52.4285C58.6298 52.664 58.0688 52.7455 57.5201 52.6625C56.8003 52.5572 56.1507 52.1734 55.7112 51.5937ZM59.3994 50.1187L59.5603 49.0649C59.6186 48.6807 59.5221 48.289 59.2919 47.9759C59.0617 47.6627 58.7167 47.4537 58.3325 47.3947L57.2787 47.2338C56.8945 47.1755 56.5028 47.272 56.1897 47.5022C55.8765 47.7324 55.6675 48.0774 55.6085 48.4615L55.4476 49.5153C55.3893 49.8996 55.4858 50.2912 55.716 50.6044C55.9462 50.9175 56.2912 51.1266 56.6753 51.1856L57.7291 51.3465C58.1134 51.4048 58.505 51.3083 58.8182 51.0781C59.1313 50.8479 59.3403 50.5029 59.3994 50.1187ZM56.8765 49.8683C56.8415 49.863 56.8101 49.844 56.7892 49.8155C56.7683 49.787 56.7595 49.7514 56.7648 49.7165L56.9258 48.6627C56.9311 48.6277 56.9501 48.5963 56.9786 48.5754C57.007 48.5545 57.0427 48.5457 57.0776 48.551L58.1314 48.712C58.1663 48.7173 58.1977 48.7363 58.2187 48.7648C58.2396 48.7932 58.2483 48.8289 58.243 48.8638L58.0821 49.9176C58.0768 49.9525 58.0578 49.9839 58.0293 50.0049C58.0008 50.0258 57.9652 50.0346 57.9303 50.0292L56.8765 49.8683Z" stroke="#FFFFFF"/>
    <path d="M67.8129 73.9465C69.2215 73.9465 70.3634 72.8047 70.3634 71.3961V68.8456V28.243C70.3634 27.2345 69.8567 26.2935 69.0147 25.7384L40.7943 7.13191C39.7925 6.47138 38.4935 6.47137 37.4916 7.13191L9.27125 25.7384C8.42931 26.2935 7.92261 27.2345 7.92261 28.243V71.5046C7.92261 72.9132 9.06448 74.0551 10.4731 74.0551C11.8816 74.0551 13.0235 72.9132 13.0235 71.5046V30.9925C13.0235 29.984 13.5302 29.0429 14.3722 28.4878L37.4917 13.2456C38.4935 12.5852 39.7925 12.5852 40.7943 13.2456L63.9137 28.4878C64.7557 29.0429 65.2625 29.984 65.2625 30.9925V71.3961C65.2625 72.8047 66.4043 73.9465 67.8129 73.9465Z" fill="#FFFFFF"/>
    <path d="M37.4922 5.56436C38.4938 4.90476 39.792 4.90507 40.7933 5.56512L74.7124 27.9246C75.5823 28.4981 76.7534 28.2459 77.3101 27.3652C77.8521 26.5079 77.6079 25.3745 76.761 24.8164L40.7938 1.11529C39.7922 0.455318 38.4939 0.45532 37.4923 1.11529L1.55845 24.7945C0.699781 25.3603 0.466759 26.5175 1.0395 27.3715C1.60562 28.2158 2.74651 28.4457 3.59544 27.8866L37.4922 5.56436Z" fill="#FFFFFF"/>
    <path fill-rule="evenodd" clip-rule="evenodd" d="M23.7363 38.1737C23.5678 37.7493 23.2482 37.407 22.8429 37.217C22.4376 37.0269 21.9771 37.0033 21.5555 37.151C21.1338 37.2987 20.7828 37.6065 20.5742 38.0117C20.3656 38.4168 20.315 38.8887 20.4328 39.3309L20.4993 39.5289L25.0612 51.0827L23.9128 51.3976C22.0776 51.9033 20.5499 53.4384 20.2598 55.5332C20.0116 57.3329 19.7791 60.0683 20.099 62.8866C20.4171 65.6797 21.305 68.7859 23.5021 71.0678C24.3096 71.9065 25.4685 72.0397 26.2515 72.0541C27.1447 72.0685 28.1742 71.9281 29.2316 71.7121C31.357 71.2766 33.9054 70.4704 36.3175 69.6137L37.0411 69.3528L38.4621 68.8237L39.8255 68.3L41.1084 67.7907L42.8178 67.0924L44.2546 66.4895L45.6826 65.8686C45.9628 65.7467 46.2073 65.5517 46.3918 65.3027C46.5764 65.0537 46.6946 64.7594 46.7349 64.449C46.7751 64.1385 46.736 63.8226 46.6213 63.5325C46.5066 63.2424 46.3204 62.9881 46.0811 62.7948C43.6743 60.8512 41.4143 58.616 39.5073 56.5518L38.5827 55.5368L38.1458 55.0437L37.3208 54.0953L36.9362 53.6418L35.898 52.391L35.309 51.6604C34.6927 50.8806 33.8829 50.2871 32.9657 49.9427C32.0484 49.5983 31.0577 49.5159 30.0986 49.7041L29.7507 49.7869L28.4626 50.1414L23.7363 38.1737ZM35.5834 57.493C37.4964 59.6743 39.5265 61.7435 41.6642 63.6911C40.6574 64.1086 39.6489 64.5189 38.6352 64.9148C37.7029 64.2313 36.8645 63.4213 36.1427 62.5069C35.8368 62.1317 35.552 61.7387 35.2897 61.3299L35.0415 60.9124C34.8115 60.5044 34.4351 60.2057 33.9933 60.0806C33.5515 59.9555 33.0797 60.014 32.6794 60.2436C32.2791 60.4731 31.9824 60.8554 31.8531 61.3079C31.7237 61.7605 31.7722 62.2473 31.988 62.6635C32.397 63.4193 32.9091 64.1284 33.4422 64.7942C33.8739 65.3353 34.3361 65.8497 34.8265 66.3347C34.019 66.6191 33.2115 66.889 32.4285 67.1374C31.7765 66.6749 31.0127 65.7247 30.3205 64.6449C30.0426 64.213 29.7787 63.7684 29.5305 63.3131L29.1739 62.6221C28.9683 62.1942 28.6061 61.8679 28.1668 61.715C27.7276 61.5621 27.2474 61.5951 26.8318 61.8068C26.4162 62.0185 26.0993 62.3915 25.9508 62.8437C25.8023 63.296 25.8344 63.7905 26.04 64.2184C26.4403 65.0498 26.9069 65.8542 27.4033 66.6281C27.7466 67.1679 28.1165 67.6893 28.5115 68.1902L27.7756 68.3378C27.1429 68.4583 26.4752 68.5429 25.8722 68.4152C24.5333 66.9484 23.8394 64.8194 23.572 62.4673C23.5091 61.922 23.4706 61.3767 23.4532 60.8404L35.5834 57.493ZM30.6561 53.2638C31.0104 53.1729 31.3826 53.1886 31.7284 53.3092C32.0742 53.4298 32.3791 53.6502 32.6068 53.9441L33.0315 54.4714L23.5965 57.0737L23.6786 56.3683C23.692 56.259 23.706 56.1498 23.7206 56.0407C23.7853 55.5854 24.0981 55.1571 24.6137 54.9429L24.8165 54.8745L30.6561 53.2638ZM44.2091 47.3574L44.0972 47.6093C43.6206 48.6245 42.87 49.4767 41.9351 50.0641L41.7603 50.1684C41.7422 50.1792 41.7271 50.1946 41.7166 50.2133C41.7061 50.2319 41.7006 50.2531 41.7006 50.2746C41.7006 50.2962 41.7061 50.3173 41.7166 50.336C41.7271 50.3546 41.7422 50.3701 41.7603 50.3808L41.9351 50.4852C42.8698 51.0737 43.6199 51.9273 44.0955 52.9435L44.2074 53.1937C44.2171 53.2164 44.233 53.2357 44.2531 53.2492C44.2733 53.2628 44.2969 53.27 44.321 53.27C44.3451 53.27 44.3686 53.2628 44.3888 53.2492C44.409 53.2357 44.4249 53.2164 44.4346 53.1937L44.5465 52.9417C45.0231 51.9265 45.7737 51.0743 46.7086 50.487L46.8834 50.3826C46.9015 50.3719 46.9166 50.3564 46.9271 50.3378C46.9376 50.3191 46.9431 50.298 46.9431 50.2764C46.9431 50.2549 46.9376 50.2337 46.9271 50.2151C46.9166 50.1964 46.9015 50.181 46.8834 50.1702L46.7086 50.0659C45.7745 49.477 45.0251 48.6235 44.5499 47.6075L44.4381 47.3574C44.4284 47.3347 44.4125 47.3154 44.3923 47.3018C44.3721 47.2882 44.3486 47.281 44.3245 47.281C44.3004 47.281 44.2768 47.2882 44.2566 47.3018C44.2365 47.3154 44.2188 47.3347 44.2091 47.3574ZM39.2609 38.6128C39.191 38.4509 38.9707 38.4509 38.9008 38.6128L38.7225 39.0124C37.9634 40.6284 36.7679 41.9849 35.2792 42.9194L35.0048 43.0868C34.9753 43.1036 34.9507 43.1282 34.9336 43.1581C34.9165 43.1881 34.9074 43.2221 34.9074 43.2569C34.9074 43.2916 34.9165 43.3257 34.9336 43.3556C34.9507 43.3855 34.9753 43.4101 35.0048 43.4269L35.281 43.5925C36.7699 44.5275 37.9654 45.8846 38.7243 47.5013L38.8991 47.9009C38.9145 47.9371 38.9398 47.9679 38.9719 47.9895C39.0041 48.0111 39.0416 48.0226 39.08 48.0226C39.1184 48.0226 39.1559 48.0111 39.188 47.9895C39.2202 47.9679 39.2455 47.9371 39.2609 47.9009L39.4392 47.5013C40.1981 45.8846 41.3936 44.5275 42.8825 43.5925L43.1586 43.4269C43.1881 43.4101 43.2127 43.3855 43.2299 43.3556C43.247 43.3257 43.256 43.2916 43.256 43.2569C43.256 43.2221 43.247 43.1881 43.2299 43.1581C43.2127 43.1282 43.1881 43.1036 43.1586 43.0868L42.8807 42.9194C41.3921 41.9849 40.1966 40.6284 39.4374 39.0124L39.2609 38.6128Z" fill="#FFFFFF"/>
    <path fill-rule="evenodd" clip-rule="evenodd" d="M23.7363 38.1737C23.5678 37.7493 23.2482 37.407 22.8429 37.217C22.4376 37.0269 21.9771 37.0033 21.5555 37.151C21.1338 37.2987 20.7828 37.6065 20.5742 38.0117C20.3656 38.4168 20.315 38.8887 20.4328 39.3309L20.4993 39.5289L25.0612 51.0827L23.9128 51.3976C22.0776 51.9033 20.5499 53.4384 20.2598 55.5332C20.0116 57.3329 19.7791 60.0683 20.099 62.8866C20.4171 65.6797 21.305 68.7859 23.5021 71.0678C24.3096 71.9065 25.4685 72.0397 26.2515 72.0541C27.1447 72.0685 28.1742 71.9281 29.2316 71.7121C31.357 71.2766 33.9054 70.4704 36.3175 69.6137L37.0411 69.3528L38.4621 68.8237L39.8255 68.3L41.1084 67.7907L42.8178 67.0924L44.2546 66.4895L45.6826 65.8686C45.9628 65.7467 46.2073 65.5517 46.3918 65.3027C46.5764 65.0537 46.6946 64.7594 46.7349 64.449C46.7751 64.1385 46.736 63.8226 46.6213 63.5325C46.5066 63.2424 46.3204 62.9881 46.0811 62.7948C43.6743 60.8512 41.4143 58.616 39.5073 56.5518L38.5827 55.5368L38.1458 55.0437L37.3208 54.0953L36.9362 53.6418L35.898 52.391L35.309 51.6604C34.6927 50.8806 33.8829 50.2871 32.9657 49.9427C32.0484 49.5983 31.0577 49.5159 30.0986 49.7041L29.7507 49.7869L28.4626 50.1414L23.7363 38.1737ZM35.5834 57.493C37.4964 59.6743 39.5265 61.7435 41.6642 63.6911C40.6574 64.1086 39.6489 64.5189 38.6352 64.9148C37.7029 64.2313 36.8645 63.4213 36.1427 62.5069C35.8368 62.1317 35.552 61.7387 35.2897 61.3299L35.0415 60.9124C34.8115 60.5044 34.4351 60.2057 33.9933 60.0806C33.5515 59.9555 33.0797 60.014 32.6794 60.2436C32.2791 60.4731 31.9824 60.8554 31.8531 61.3079C31.7237 61.7605 31.7722 62.2473 31.988 62.6635C32.397 63.4193 32.9091 64.1284 33.4422 64.7942C33.8739 65.3353 34.3361 65.8497 34.8265 66.3347C34.019 66.6191 33.2115 66.889 32.4285 67.1374C31.7765 66.6749 31.0127 65.7247 30.3205 64.6449C30.0426 64.213 29.7787 63.7684 29.5305 63.3131L29.1739 62.6221C28.9683 62.1942 28.6061 61.8679 28.1668 61.715C27.7276 61.5621 27.2474 61.5951 26.8318 61.8068C26.4162 62.0185 26.0993 62.3915 25.9508 62.8437C25.8023 63.296 25.8344 63.7905 26.04 64.2184C26.4403 65.0498 26.9069 65.8542 27.4033 66.6281C27.7466 67.1679 28.1165 67.6893 28.5115 68.1902L27.7756 68.3378C27.1429 68.4583 26.4752 68.5429 25.8722 68.4152C24.5333 66.9484 23.8394 64.8194 23.572 62.4673C23.5091 61.922 23.4706 61.3767 23.4532 60.8404L35.5834 57.493ZM30.6561 53.2638C31.0104 53.1729 31.3826 53.1886 31.7284 53.3092C32.0742 53.4298 32.3791 53.6502 32.6068 53.9441L33.0315 54.4714L23.5965 57.0737L23.6786 56.3683C23.692 56.259 23.706 56.1498 23.7206 56.0407C23.7853 55.5854 24.0981 55.1571 24.6137 54.9429L24.8165 54.8745L30.6561 53.2638ZM44.2091 47.3574L44.0972 47.6093C43.6206 48.6245 42.87 49.4767 41.9351 50.0641L41.7603 50.1684C41.7422 50.1792 41.7271 50.1946 41.7166 50.2133C41.7061 50.2319 41.7006 50.2531 41.7006 50.2746C41.7006 50.2962 41.7061 50.3173 41.7166 50.336C41.7271 50.3546 41.7422 50.3701 41.7603 50.3808L41.9351 50.4852C42.8698 51.0737 43.6199 51.9273 44.0955 52.9435L44.2074 53.1937C44.2171 53.2164 44.233 53.2357 44.2531 53.2492C44.2733 53.2628 44.2969 53.27 44.321 53.27C44.3451 53.27 44.3686 53.2628 44.3888 53.2492C44.409 53.2357 44.4249 53.2164 44.4346 53.1937L44.5465 52.9417C45.0231 51.9265 45.7737 51.0743 46.7086 50.487L46.8834 50.3826C46.9015 50.3719 46.9166 50.3564 46.9271 50.3378C46.9376 50.3191 46.9431 50.298 46.9431 50.2764C46.9431 50.2549 46.9376 50.2337 46.9271 50.2151C46.9166 50.1964 46.9015 50.181 46.8834 50.1702L46.7086 50.0659C45.7745 49.477 45.0251 48.6235 44.5499 47.6075L44.4381 47.3574C44.4284 47.3347 44.4125 47.3154 44.3923 47.3018C44.3721 47.2882 44.3486 47.281 44.3245 47.281C44.3004 47.281 44.2768 47.2882 44.2566 47.3018C44.2365 47.3154 44.2188 47.3347 44.2091 47.3574ZM39.2609 38.6128C39.191 38.4509 38.9707 38.4509 38.9008 38.6128L38.7225 39.0124C37.9634 40.6284 36.7679 41.9849 35.2792 42.9194L35.0048 43.0868C34.9753 43.1036 34.9507 43.1282 34.9336 43.1581C34.9165 43.1881 34.9074 43.2221 34.9074 43.2569C34.9074 43.2916 34.9165 43.3257 34.9336 43.3556C34.9507 43.3855 34.9753 43.4101 35.0048 43.4269L35.281 43.5925C36.7699 44.5275 37.9654 45.8846 38.7243 47.5013L38.8991 47.9009C38.9145 47.9371 38.9398 47.9679 38.9719 47.9895C39.0041 48.0111 39.0416 48.0226 39.08 48.0226C39.1184 48.0226 39.1559 48.0111 39.188 47.9895C39.2202 47.9679 39.2455 47.9371 39.2609 47.9009L39.4392 47.5013C40.1981 45.8846 41.3936 44.5275 42.8825 43.5925L43.1586 43.4269C43.1881 43.4101 43.2127 43.3855 43.2299 43.3556C43.247 43.3257 43.256 43.2916 43.256 43.2569C43.256 43.2221 43.247 43.1881 43.2299 43.1581C43.2127 43.1282 43.1881 43.1036 43.1586 43.0868L42.8807 42.9194C41.3921 41.9849 40.1966 40.6284 39.4374 39.0124L39.2609 38.6128Z" fill="#FFFFFF"/>
    </svg>
    